<svg width="166" height="166" viewBox="0 0 166 166" fill="none" xmlns="http://www.w3.org/2000/svg">
<g clip-path="url(#clip0)">
<path d="M127.704 165.911H11.2895C5.07296 165.911 0 160.785 0 154.503V36.8625C0 30.5805 5.07296 25.4541 11.2895 25.4541H127.704C133.92 25.4541 138.993 30.5805 138.993 36.8625V154.503C138.993 160.785 133.92 165.911 127.704 165.911ZM11.2895 29.6026C7.33086 29.6026 4.10528 32.8622 4.10528 36.8625V154.503C4.10528 158.503 7.33086 161.763 11.2895 161.763H127.704C131.662 161.763 134.888 158.503 134.888 154.503V36.8625C134.888 32.8622 131.662 29.6026 127.704 29.6026H11.2895Z" fill="#0025FF"/>
<path d="M136.94 53.3084H2.05264C0.909027 53.3084 0 52.3898 0 51.2342C0 50.0785 0.909027 49.1599 2.05264 49.1599H136.94C138.084 49.1599 138.993 50.0785 138.993 51.2342C138.993 52.3898 138.084 53.3084 136.94 53.3084Z" fill="#0025FF"/>
<path d="M52.6063 166C52.0785 166 51.5507 165.793 51.1695 165.407C50.3778 164.607 50.3778 163.274 51.1695 162.474L55.2454 158.355L50.0552 150.058C49.6447 149.376 49.6447 148.517 50.0552 147.836C51.6973 145.228 52.8409 142.383 53.5154 139.42C53.6913 138.65 54.3071 138.027 55.0695 137.849L64.541 135.716V131.538L55.0695 129.404C54.3071 129.226 53.6913 128.604 53.5154 127.834C52.8702 124.871 51.6973 122.026 50.0552 119.418C49.6447 118.737 49.6447 117.877 50.0552 117.196L55.2454 108.899L52.3424 105.965L44.1319 111.24C43.4574 111.684 42.607 111.684 41.9326 111.24C39.4108 109.61 36.5957 108.425 33.6047 107.743C32.8423 107.565 32.2265 106.943 32.0506 106.173L29.9393 96.6013H25.8047L23.6934 106.173C23.5175 106.943 22.931 107.565 22.1393 107.743C19.1483 108.425 16.3626 109.61 13.8114 111.24C13.137 111.684 12.2866 111.684 11.6122 111.24L1.99407 105.047C1.02639 104.424 0.76248 103.15 1.34895 102.172C1.96474 101.194 3.22565 100.928 4.19332 101.52L12.7264 106.973C14.9844 105.669 17.3889 104.632 19.94 103.95L22.1393 94.0233C22.3445 93.0751 23.1949 92.3936 24.1333 92.3936H31.5521C32.5198 92.3936 33.3408 93.0751 33.5461 94.0233L35.7453 103.95C38.2965 104.661 40.701 105.669 42.9589 106.973L51.492 101.52C52.3131 100.987 53.3687 101.105 54.0432 101.817L59.2921 107.121C59.9665 107.802 60.0838 108.869 59.5853 109.699L54.1898 118.322C55.5094 120.633 56.5063 123.063 57.1808 125.611L67.0041 127.834C67.9425 128.041 68.6169 128.901 68.6169 129.849V137.346C68.6169 138.324 67.9425 139.153 67.0041 139.361L57.1808 141.583C56.5063 144.131 55.5094 146.561 54.1898 148.873L59.5853 157.496C60.1131 158.325 59.9958 159.392 59.2921 160.074L54.0432 165.378C53.662 165.793 53.1342 166 52.6063 166Z" fill="#0025FF"/>
<path d="M57.7671 65.1612H16.7143C15.5706 65.1612 14.6616 64.2426 14.6616 63.087C14.6616 61.9313 15.5706 61.0127 16.7143 61.0127H57.7671C58.9107 61.0127 59.8197 61.9313 59.8197 63.087C59.8197 64.2426 58.9107 65.1612 57.7671 65.1612Z" fill="#0025FF"/>
<path d="M90.0232 65.1612H69.4967C68.3531 65.1612 67.4441 64.2426 67.4441 63.087C67.4441 61.9313 68.3531 61.0127 69.4967 61.0127H90.0232C91.1668 61.0127 92.0758 61.9313 92.0758 63.087C92.0758 64.2426 91.1668 65.1612 90.0232 65.1612Z" fill="#0025FF"/>
<path d="M119.347 65.1612H101.753C100.609 65.1612 99.7 64.2426 99.7 63.087C99.7 61.9313 100.609 61.0127 101.753 61.0127H119.347C120.49 61.0127 121.399 61.9313 121.399 63.087C121.399 64.2426 120.49 65.1612 119.347 65.1612Z" fill="#0025FF"/>
<path d="M63.632 88.8673H43.1056C41.962 88.8673 41.053 87.9487 41.053 86.793C41.053 85.6374 41.962 84.7188 43.1056 84.7188H63.632C64.7756 84.7188 65.6847 85.6374 65.6847 86.793C65.6847 87.9487 64.7756 88.8673 63.632 88.8673Z" fill="#0025FF"/>
<path d="M92.9555 88.8673H75.3615C74.2179 88.8673 73.3088 87.9487 73.3088 86.793C73.3088 85.6374 74.2179 84.7188 75.3615 84.7188H92.9555C94.0992 84.7188 95.0082 85.6374 95.0082 86.793C95.0082 87.9487 94.0992 88.8673 92.9555 88.8673Z" fill="#0025FF"/>
<path d="M37.2407 77.0142H16.7143C15.5706 77.0142 14.6616 76.0956 14.6616 74.94C14.6616 73.7843 15.5706 72.8657 16.7143 72.8657H37.2407C38.3843 72.8657 39.2933 73.7843 39.2933 74.94C39.2933 76.0956 38.3843 77.0142 37.2407 77.0142Z" fill="#0025FF"/>
<path d="M119.347 77.0142H48.9704C47.8268 77.0142 46.9177 76.0956 46.9177 74.94C46.9177 73.7843 47.8268 72.8657 48.9704 72.8657H119.347C120.49 72.8657 121.399 73.7843 121.399 74.94C121.399 76.0956 120.49 77.0142 119.347 77.0142Z" fill="#0025FF"/>
<path d="M95.8879 112.573H75.3615C74.2179 112.573 73.3088 111.654 73.3088 110.499C73.3088 109.343 74.2179 108.425 75.3615 108.425H95.8879C97.0315 108.425 97.9405 109.343 97.9405 110.499C97.9405 111.654 97.0315 112.573 95.8879 112.573Z" fill="#0025FF"/>
<path d="M125.211 112.573H107.617C106.473 112.573 105.564 111.654 105.564 110.499C105.564 109.343 106.473 108.425 107.617 108.425H125.211C126.355 108.425 127.264 109.343 127.264 110.499C127.264 111.654 126.355 112.573 125.211 112.573Z" fill="#0025FF"/>
<path d="M104.685 136.279H81.226C80.0824 136.279 79.1733 135.36 79.1733 134.205C79.1733 133.049 80.0824 132.13 81.226 132.13H104.685C105.828 132.13 106.737 133.049 106.737 134.205C106.737 135.36 105.828 136.279 104.685 136.279Z" fill="#0025FF"/>
<path d="M125.211 136.279H116.414C115.271 136.279 114.362 135.36 114.362 134.205C114.362 133.049 115.271 132.13 116.414 132.13H125.211C126.355 132.13 127.264 133.049 127.264 134.205C127.264 135.36 126.355 136.279 125.211 136.279Z" fill="#0025FF"/>
<path d="M125.211 124.426H84.1584C83.0147 124.426 82.1057 123.507 82.1057 122.352C82.1057 121.196 83.0147 120.277 84.1584 120.277H125.211C126.355 120.277 127.264 121.196 127.264 122.352C127.264 123.507 126.355 124.426 125.211 124.426Z" fill="#0025FF"/>
<path d="M125.211 148.132H72.4291C71.2855 148.132 70.3765 147.213 70.3765 146.057C70.3765 144.902 71.2855 143.983 72.4291 143.983H125.211C126.355 143.983 127.264 144.902 127.264 146.057C127.264 147.213 126.355 148.132 125.211 148.132Z" fill="#0025FF"/>
<path d="M13.782 36.418C15.3947 36.418 16.7143 37.7514 16.7143 39.3812C16.7143 41.011 15.3947 42.3444 13.782 42.3444C12.1692 42.3444 10.8496 41.011 10.8496 39.3812C10.8496 37.7514 12.1692 36.418 13.782 36.418Z" fill="#0025FF"/>
<path d="M25.5114 36.418C27.1242 36.418 28.4438 37.7514 28.4438 39.3812C28.4438 41.011 27.1242 42.3444 25.5114 42.3444C23.8987 42.3444 22.5791 41.011 22.5791 39.3812C22.5791 37.7514 23.8987 36.418 25.5114 36.418Z" fill="#0025FF"/>
<path d="M37.2407 36.418C38.8535 36.418 40.173 37.7514 40.173 39.3812C40.173 41.011 38.8535 42.3444 37.2407 42.3444C35.6279 42.3444 34.3083 41.011 34.3083 39.3812C34.3083 37.7514 35.6279 36.418 37.2407 36.418Z" fill="#0025FF"/>
<path d="M160.81 27.5581C160.81 46.345 150.928 63.7095 134.858 73.1622C118.76 63.7095 108.878 46.345 108.878 27.5581V17.5128L134.829 5.60059L160.78 17.5128V27.5581H160.81Z" fill="white"/>
<path d="M164.475 13.3642L135.914 0.237135C135.24 -0.0591881 134.448 -0.0591881 133.774 0.237135L105.213 13.3642C104.274 13.7791 103.688 14.7273 103.688 15.7644V27.4988C103.688 48.7155 115.153 68.2729 133.598 78.4367C134.389 78.9108 135.386 78.9108 136.207 78.4367C154.623 68.2432 166.059 48.7155 166.029 27.4988V15.7348C166 14.6977 165.414 13.7791 164.475 13.3642ZM160.81 27.4692C160.81 46.2561 150.928 63.6206 134.859 73.0733C118.789 63.6502 108.878 46.2561 108.907 27.4692V17.4239L134.859 5.51168L160.81 17.4239V27.4692Z" fill="#0025FF"/>
<path d="M133.568 40.7445L147.761 26.3728C148.787 25.3357 150.429 25.3357 151.456 26.3728C152.482 27.4099 152.482 29.0694 151.456 30.1065L135.416 46.3153C134.419 47.3525 132.747 47.3525 131.75 46.345C131.75 46.345 131.75 46.345 131.721 46.3153L123.364 37.8701C122.337 36.833 122.337 35.1736 123.364 34.1365C124.39 33.0993 126.032 33.0993 127.058 34.1365L133.568 40.7445Z" fill="#0025FF"/>
</g>
<defs>
<clipPath id="clip0">
<rect width="166" height="166" fill="white"/>
</clipPath>
</defs>
</svg>
