<svg width="216" height="88" viewBox="0 0 216 88" fill="none" xmlns="http://www.w3.org/2000/svg">
<g clip-path="url(#clip0)">
<path d="M185.982 85.6491H14.8862C8.00859 85.6491 2.41504 80.039 2.41504 73.1017V38.2556C2.41504 31.336 7.991 25.7083 14.8862 25.7083H185.982C192.86 25.7083 198.453 31.3183 198.453 38.2556V73.1017C198.453 80.039 192.877 85.6491 185.982 85.6491Z" fill="white"/>
<path d="M185.982 23.6907H14.8861C6.9003 23.6907 0.409668 30.221 0.409668 38.2556V73.1016C0.409668 81.1361 6.9003 87.6664 14.8861 87.6664H185.982C193.968 87.6664 200.458 81.1361 200.458 73.1016V38.2556C200.458 30.221 193.968 23.6907 185.982 23.6907ZM185.982 83.6315H14.8861C9.11661 83.6315 4.43773 78.9063 4.43773 73.1193V38.2556C4.43773 32.4508 9.1342 27.7434 14.8861 27.7434H185.982C191.751 27.7434 196.43 32.4685 196.43 38.2556V73.1016C196.43 78.9063 191.751 83.6315 185.982 83.6315Z" fill="#0025FF"/>
<path d="M25.2466 48.4314C25.2466 47.2988 26.1437 46.3962 27.2694 46.3962H37.6122C38.65 46.3962 39.4591 47.2103 39.4591 48.2545C39.4591 49.2986 38.65 50.1127 37.6122 50.1127H29.3098V54.0592H36.4337C37.4539 54.0592 38.2806 54.8733 38.2806 55.9174C38.2806 56.9615 37.4715 57.7756 36.4337 57.7756H29.3098V63.0848C29.3098 64.2174 28.4127 65.12 27.287 65.12C26.1437 65.12 25.2642 64.2174 25.2642 63.0848V48.4314H25.2466Z" fill="#0025FF"/>
<path d="M27.2695 65.2262C26.091 65.2262 25.1587 64.2882 25.1587 63.1025V48.4491C25.1587 47.2634 26.091 46.3254 27.2695 46.3254H37.6123C38.7028 46.3254 39.5471 47.1749 39.5471 48.2721C39.5471 49.3694 38.7028 50.2188 37.6123 50.2188H29.3802V54.0061H36.4162C37.5067 54.0061 38.351 54.8555 38.351 55.9528C38.351 57.05 37.5067 57.8995 36.4162 57.8995H29.3802V63.1202C29.3802 64.2882 28.4656 65.2262 27.2695 65.2262ZM27.2695 46.4847C26.1789 46.4847 25.317 47.3519 25.317 48.4491V63.1025C25.317 64.1997 26.1789 65.0669 27.2695 65.0669C28.36 65.0669 29.2219 64.1997 29.2219 63.1025V57.7048H36.4337C37.4188 57.7048 38.1927 56.9261 38.1927 55.9351C38.1927 54.944 37.4188 54.1653 36.4337 54.1653H29.2219V50.0419H37.6123C38.5973 50.0419 39.3712 49.2632 39.3712 48.2721C39.3712 47.2811 38.5973 46.5024 37.6123 46.5024H27.2695V46.4847Z" fill="#0025FF"/>
<path d="M45.3691 48.272C45.3691 47.1394 46.2662 46.2368 47.392 46.2368C48.5177 46.2368 49.4148 47.1394 49.4148 48.272V63.0847C49.4148 64.2173 48.5177 65.1199 47.392 65.1199C46.2486 65.1199 45.3691 64.2173 45.3691 63.0847V48.272Z" fill="#0025FF"/>
<path d="M47.4096 65.2261C46.2311 65.2261 45.2988 64.2882 45.2988 63.1025V48.2721C45.2988 47.0864 46.2311 46.1484 47.4096 46.1484C48.5881 46.1484 49.5204 47.0864 49.5204 48.2721V63.0848C49.5204 64.2882 48.5881 65.2261 47.4096 65.2261ZM47.4096 46.3254C46.319 46.3254 45.4571 47.1926 45.4571 48.2898V63.1025C45.4571 64.1997 46.319 65.0669 47.4096 65.0669C48.5002 65.0669 49.3621 64.1997 49.3621 63.1025V48.2721C49.3445 47.1749 48.5002 46.3254 47.4096 46.3254Z" fill="#0025FF"/>
<path d="M56.6973 48.3253C56.6973 47.1927 57.5943 46.2902 58.7201 46.2902H59.1422C60.1097 46.2902 60.6901 46.768 61.253 47.4759L69.0805 57.8288V48.2546C69.0805 47.1396 69.9776 46.2371 71.0857 46.2371C72.1939 46.2371 73.091 47.1396 73.091 48.2546V63.0318C73.091 64.1644 72.1939 65.067 71.0681 65.067H70.945C69.9776 65.067 69.3795 64.5892 68.8342 63.8636L60.7077 53.139V63.0849C60.7077 64.1998 59.8107 65.1024 58.7025 65.1024C57.5943 65.1024 56.6973 64.1998 56.6973 63.0849V48.3253Z" fill="#0025FF"/>
<path d="M58.7026 65.2263C57.5592 65.2263 56.6094 64.2883 56.6094 63.1203V48.343C56.6094 47.1573 57.5416 46.2193 58.7201 46.2193H59.1423C60.2153 46.2193 60.8309 46.8034 61.3234 47.4405L69.0102 57.5987V48.2722C69.0102 47.1219 69.9424 46.1663 71.1034 46.1663C72.2643 46.1663 73.1965 47.1042 73.1965 48.2722V63.0495C73.1965 64.2352 72.2643 65.1732 71.0858 65.1732H70.9451C69.8721 65.1732 69.2564 64.5892 68.7639 63.9521L60.7782 53.4045V63.1026C60.7782 64.2706 59.8459 65.2263 58.7026 65.2263ZM58.7201 46.3786C57.6296 46.3786 56.7677 47.2458 56.7677 48.343V63.1203C56.7677 64.1821 57.6296 65.0493 58.685 65.0493C59.7404 65.0493 60.6023 64.1821 60.6023 63.1203V52.9089L68.887 63.8282C69.4323 64.5184 69.9776 64.9962 70.9275 64.9962H71.0506C72.1412 64.9962 73.0031 64.129 73.0031 63.0318V48.2545C73.0031 47.1927 72.1412 46.3255 71.0858 46.3255C70.0304 46.3255 69.1685 47.1927 69.1685 48.2545V58.0942L61.1827 47.5466C60.6374 46.8565 60.0922 46.3786 59.1423 46.3786H58.7201Z" fill="#0025FF"/>
<path d="M85.1047 63.6511L79.1242 49.2455C78.9835 48.9269 78.8955 48.6084 78.8955 48.2721C78.8955 47.1395 79.7926 46.2546 80.9183 46.2546C81.9737 46.2546 82.6597 46.8563 82.9763 47.6881L87.5849 59.7046L92.2461 47.5465C92.51 46.874 93.2136 46.2546 94.1986 46.2546C95.3068 46.2546 96.2038 47.1041 96.2038 48.219C96.2038 48.5376 96.0983 48.8738 95.9928 49.1216L89.9595 63.6688C89.5373 64.6775 88.7634 65.2793 87.6728 65.2793H87.409C86.3008 65.2616 85.5269 64.6598 85.1047 63.6511Z" fill="#0025FF"/>
<path d="M87.6729 65.3501H87.409C86.3184 65.3501 85.4917 64.7661 85.0344 63.6866L79.0539 49.281C78.9307 48.9801 78.8076 48.6439 78.8076 48.2722C78.8076 47.0865 79.7399 46.1663 80.9184 46.1663C81.921 46.1663 82.6949 46.7149 83.0467 47.6528L87.5849 59.4746L92.1758 47.5289C92.4397 46.8565 93.1785 46.1663 94.1987 46.1663C95.3772 46.1663 96.2918 47.0688 96.2918 48.2191C96.2918 48.6262 96.1335 49.0155 96.0808 49.1571L90.0475 63.7043C89.5725 64.7661 88.7634 65.3501 87.6729 65.3501ZM85.1751 63.6158C85.5973 64.6423 86.3712 65.1909 87.3914 65.1909H87.6553C88.6755 65.1909 89.4494 64.6423 89.8716 63.6158L95.9049 49.0686C96.028 48.7855 96.1159 48.4492 96.1159 48.2015C96.1159 47.1396 95.2716 46.3255 94.1987 46.3255C93.2488 46.3255 92.5628 46.9449 92.3166 47.582L87.5673 59.9348L82.8708 47.7059C82.6774 47.1927 82.1497 46.3255 80.8832 46.3255C79.7926 46.3255 78.9307 47.175 78.9307 48.2545C78.9307 48.5908 79.0363 48.9093 79.1594 49.2102L85.1751 63.6158Z" fill="#0025FF"/>
<path d="M99.0885 62.3415L105.526 47.7235C105.966 46.7147 106.793 46.113 107.901 46.113H108.13C109.238 46.113 110.029 46.7147 110.469 47.7235L116.907 62.3415C117.048 62.6423 117.118 62.8901 117.118 63.1556C117.118 64.2351 116.274 65.12 115.201 65.12C114.251 65.12 113.618 64.5713 113.248 63.7219L112.017 60.8018H103.891L102.606 63.8457C102.255 64.6421 101.586 65.12 100.742 65.12C99.6866 65.12 98.8599 64.2705 98.8599 63.2086C98.8599 62.9255 98.9654 62.6423 99.0885 62.3415ZM110.522 57.1916L107.971 51.0683L105.421 57.1916H110.522Z" fill="#0025FF"/>
<path d="M115.218 65.2262C114.304 65.2262 113.6 64.7307 113.196 63.7751L111.982 60.9081H103.961L102.694 63.9166C102.343 64.7484 101.604 65.2439 100.742 65.2439C99.6515 65.2439 98.7896 64.3591 98.7896 63.2442C98.7896 62.9256 98.9127 62.607 99.0358 62.3416L105.474 47.7236C105.949 46.6441 106.828 46.0601 107.919 46.0601H108.147C109.255 46.0601 110.082 46.6441 110.575 47.7236L117.013 62.3416C117.153 62.6778 117.224 62.9433 117.224 63.1911C117.224 64.3237 116.344 65.2262 115.218 65.2262ZM103.838 60.7134H112.07L113.336 63.6866C113.723 64.5891 114.357 65.0493 115.218 65.0493C116.256 65.0493 117.065 64.2175 117.065 63.1734C117.065 62.9433 116.995 62.6955 116.854 62.377L110.416 47.7413C109.959 46.7149 109.168 46.1662 108.147 46.1662H107.919C106.881 46.1662 106.072 46.7149 105.614 47.7413L99.1765 62.3593C99.071 62.607 98.9479 62.9079 98.9479 63.2088C98.9479 64.2352 99.7394 65.0316 100.742 65.0316C101.551 65.0316 102.202 64.5891 102.536 63.8105L103.838 60.7134ZM110.645 57.2802H105.28L107.971 50.8383L110.645 57.2802ZM105.526 57.1032H110.399L107.954 51.2808L105.526 57.1032Z" fill="#0025FF"/>
<path d="M122.29 57.0145V48.272C122.29 47.1394 123.187 46.2368 124.312 46.2368C125.456 46.2368 126.335 47.1394 126.335 48.272V56.8906C126.335 59.9168 127.83 61.4742 130.31 61.4742C132.791 61.4742 134.286 59.9699 134.286 57.0145V48.272C134.286 47.1394 135.183 46.2368 136.309 46.2368C137.434 46.2368 138.331 47.1394 138.331 48.272V56.8729C138.331 62.5006 135.2 65.2614 130.24 65.2614C125.315 65.2614 122.29 62.4829 122.29 57.0145Z" fill="#0025FF"/>
<path d="M130.275 65.35C127.742 65.35 125.755 64.6421 124.365 63.244C122.923 61.8106 122.202 59.7046 122.202 57.0146V48.2721C122.202 47.0864 123.134 46.1484 124.312 46.1484C125.491 46.1484 126.423 47.0864 126.423 48.2721V56.8907C126.423 59.7931 127.813 61.4035 130.328 61.4035C132.843 61.4035 134.233 59.8462 134.233 57.0323V48.2721C134.233 47.0864 135.165 46.1484 136.344 46.1484C137.522 46.1484 138.455 47.0864 138.455 48.2721V56.873C138.455 62.3415 135.552 65.35 130.275 65.35ZM124.312 46.3254C123.222 46.3254 122.36 47.1926 122.36 48.2898V57.0146C122.36 62.2884 125.174 65.1908 130.275 65.1908C135.447 65.1908 138.296 62.2353 138.296 56.8907V48.2721C138.296 47.1749 137.434 46.3077 136.344 46.3077C135.253 46.3077 134.391 47.1749 134.391 48.2721V57.0323C134.391 59.9169 132.914 61.5805 130.328 61.5805C127.742 61.5805 126.265 59.8816 126.265 56.9084V48.2721C126.265 47.1749 125.403 46.3254 124.312 46.3254Z" fill="#0025FF"/>
<path d="M145.156 48.272C145.156 47.1394 146.053 46.2368 147.179 46.2368C148.305 46.2368 149.202 47.1394 149.202 48.272V61.2441H156.713C157.733 61.2441 158.56 62.0582 158.56 63.1024C158.56 64.1465 157.751 64.9606 156.713 64.9606H147.161C146.018 64.9606 145.139 64.058 145.139 62.9254V48.272H145.156Z" fill="#0025FF"/>
<path d="M156.748 65.0669H147.197C146.018 65.0669 145.086 64.1289 145.086 62.9432V48.2721C145.086 47.0864 146.018 46.1484 147.197 46.1484C148.375 46.1484 149.307 47.0864 149.307 48.2721V61.1735H156.748C157.839 61.1735 158.683 62.0229 158.683 63.1202C158.683 64.2174 157.821 65.0669 156.748 65.0669ZM147.197 46.3254C146.106 46.3254 145.244 47.1926 145.244 48.2898V62.9432C145.244 64.0404 146.106 64.9076 147.197 64.9076H156.748C157.733 64.9076 158.507 64.1289 158.507 63.1379C158.507 62.1468 157.733 61.3681 156.748 61.3681H149.149V48.2721C149.132 47.1749 148.287 46.3254 147.197 46.3254Z" fill="#0025FF"/>
<path d="M165.789 50.1657H161.884C160.864 50.1657 160.02 49.3162 160.02 48.2897C160.02 47.2633 160.864 46.4138 161.884 46.4138H173.757C174.777 46.4138 175.622 47.2633 175.622 48.2897C175.622 49.3162 174.777 50.1657 173.757 50.1657H169.852V63.0847C169.852 64.2173 168.955 65.1199 167.829 65.1199C166.704 65.1199 165.807 64.2173 165.807 63.0847V50.1657H165.789Z" fill="#0025FF"/>
<path d="M167.829 65.2262C166.651 65.2262 165.719 64.2882 165.719 63.1025V50.2542H161.884C160.811 50.2542 159.932 49.3694 159.932 48.2898C159.932 47.2103 160.811 46.3254 161.884 46.3254H173.757C174.83 46.3254 175.71 47.2103 175.71 48.2898C175.71 49.3694 174.83 50.2542 173.757 50.2542H169.94V63.1025C169.94 64.2882 169.008 65.2262 167.829 65.2262ZM161.884 46.4847C160.899 46.4847 160.09 47.2988 160.09 48.2898C160.09 49.2809 160.899 50.095 161.884 50.095H165.877V63.1025C165.877 64.1997 166.739 65.0669 167.829 65.0669C168.92 65.0669 169.782 64.1997 169.782 63.1025V50.095H173.775C174.76 50.095 175.569 49.2809 175.569 48.2898C175.569 47.2988 174.76 46.4847 173.775 46.4847H161.884Z" fill="#0025FF"/>
<path d="M195.603 3.14404C186.034 3.14404 178.26 10.9663 178.26 20.5936C178.26 30.2209 186.034 38.0431 195.603 38.0431C205.172 38.0431 212.947 30.2209 212.947 20.5936C212.947 10.9663 205.172 3.14404 195.603 3.14404Z" fill="white"/>
<path d="M196.659 12.8067V19.5671H203.079C203.625 19.5671 204.064 20.0095 204.064 20.5581C204.064 21.1068 203.625 21.5492 203.079 21.5492H196.659V28.3627C196.659 28.9113 196.219 29.3537 195.674 29.3537H195.533C194.988 29.3537 194.548 28.9113 194.548 28.3627V21.5492H188.128C187.583 21.5492 187.143 21.1068 187.143 20.5581C187.143 20.0095 187.583 19.5671 188.128 19.5671H194.548V12.8067C194.548 12.2581 194.988 11.8157 195.533 11.8157H195.674C196.219 11.8334 196.659 12.2758 196.659 12.8067Z" fill="#0025FF"/>
<path d="M195.674 29.8847H195.533C194.707 29.8847 194.021 29.2122 194.021 28.3627V22.0802H188.128C187.301 22.0802 186.615 21.4077 186.615 20.5582C186.615 19.7264 187.284 19.0362 188.128 19.0362H194.021V12.8245C194.021 11.9927 194.689 11.3025 195.533 11.3025H195.674C196.501 11.3025 197.187 11.975 197.187 12.8245V19.0539H203.079C203.906 19.0539 204.592 19.7264 204.592 20.5759C204.592 21.4077 203.924 22.0978 203.079 22.0978H197.187V28.3804C197.187 29.2122 196.501 29.8847 195.674 29.8847ZM188.128 20.0981C187.882 20.0981 187.671 20.3104 187.671 20.5582C187.671 20.8059 187.882 21.0183 188.128 21.0183H195.076V28.3627C195.076 28.6105 195.287 28.8228 195.533 28.8228H195.674C195.92 28.8228 196.131 28.6105 196.131 28.3627V21.0183H203.079C203.326 21.0183 203.537 20.8059 203.537 20.5582C203.537 20.3104 203.326 20.0981 203.079 20.0981H196.131V12.8245C196.131 12.5767 195.92 12.3643 195.674 12.3643H195.533C195.287 12.3643 195.076 12.5767 195.076 12.8245V20.1158H188.128V20.0981Z" fill="#0025FF"/>
<path d="M195.603 40.5209C184.68 40.5209 175.797 31.5837 175.797 20.5937C175.797 9.60365 184.68 0.666504 195.603 0.666504C206.527 0.666504 215.41 9.60365 215.41 20.5937C215.41 31.5837 206.527 40.5209 195.603 40.5209ZM195.603 3.14413C186.035 3.14413 178.26 10.9663 178.26 20.5937C178.26 30.221 186.035 38.0432 195.603 38.0432C205.172 38.0432 212.947 30.221 212.947 20.5937C212.947 10.9663 205.172 3.14413 195.603 3.14413Z" fill="#0025FF"/>
</g>
<defs>
<clipPath id="clip0">
<rect width="215" height="87" fill="white" transform="translate(0.409668 0.666504)"/>
</clipPath>
</defs>
</svg>
