<svg width="148" height="149" viewBox="0 0 148 149" fill="none" xmlns="http://www.w3.org/2000/svg">
<g clip-path="url(#clip0)">
<path d="M57.309 15.1888H33.3214C32.2269 15.1888 31.4668 14.4582 31.4668 13.3319C31.4668 12.2361 32.1965 11.4751 33.3214 11.4751H57.309C58.4035 11.4751 59.1636 12.2057 59.1636 13.3319C59.1636 14.4582 58.4339 15.1888 57.309 15.1888Z" fill="#0025FF" stroke="#0025FF" stroke-width="0.9533" stroke-miterlimit="10"/>
<path d="M25.2342 15.1888H23.5621C22.4676 15.1888 21.7075 14.4582 21.7075 13.3319C21.7075 12.2361 22.4372 11.4751 23.5621 11.4751H25.0518C26.1463 11.4751 26.9064 12.2057 26.9064 13.3319C26.876 14.4582 26.1463 15.1888 25.2342 15.1888Z" fill="#0025FF" stroke="#0025FF" stroke-width="0.9533" stroke-miterlimit="10"/>
<path d="M45.3306 127.817C41.8343 127.817 38.8853 130.77 38.8853 134.271C38.8853 137.771 41.8343 140.724 45.3306 140.724C48.8269 140.724 51.776 137.771 51.776 134.271C51.776 130.77 49.0093 127.817 45.3306 127.817ZM45.3306 137.071C43.8409 137.071 42.564 135.793 42.564 134.301C42.564 132.81 43.8409 131.531 45.3306 131.531C46.8203 131.531 48.0973 132.81 48.0973 134.301C48.0973 135.793 47.0028 137.071 45.3306 137.071Z" fill="#0025FF" stroke="#0025FF" stroke-width="0.9533" stroke-miterlimit="10"/>
<path d="M45.3303 39.2063C34.0813 39.2063 25.0518 48.247 25.0518 59.5099C25.0518 70.7727 34.0813 79.8135 45.3303 79.8135C56.5793 79.8135 65.6089 70.7727 65.6089 59.5099C65.6089 48.247 56.5793 39.2063 45.3303 39.2063ZM45.3303 76.1302C36.1183 76.1302 28.7305 68.7332 28.7305 59.5099C28.7305 50.2865 36.1183 42.8896 45.3303 42.8896C54.5423 42.8896 61.9301 50.2865 61.9301 59.5099C61.9301 68.7332 54.5423 76.1302 45.3303 76.1302Z" fill="#0025FF" stroke="#0025FF" stroke-width="0.9533" stroke-miterlimit="10"/>
<path d="M45.3302 57.6528C48.2793 57.6528 50.6811 60.0575 50.6811 62.8276V63.5582C50.6811 65.7803 49.1913 67.8198 47.1848 68.5503V70.4072C47.1848 71.503 46.2727 72.264 45.3302 72.264C44.2357 72.264 43.4756 71.5335 43.4756 70.4072V68.9156H41.9859C40.8914 68.9156 40.1313 68.1851 40.1313 67.0588C40.1313 65.9629 40.861 65.2019 41.9859 65.2019H45.4822C46.2119 65.2019 46.9719 64.4714 46.9719 63.7104V62.9798C46.9719 62.2492 46.2423 61.4882 45.4822 61.4882C42.5332 61.4882 40.1313 59.0835 40.1313 56.3134V55.4002C40.1313 53.1781 41.6211 51.3517 43.4452 50.5907V48.7338C43.4452 47.638 44.1749 46.877 45.2998 46.877C46.2119 46.877 47.1544 47.6075 47.1544 48.7338V50.2254H48.8265C49.7386 50.2254 50.6811 51.1386 50.6811 52.0822C50.6811 53.1781 49.769 53.9391 48.8265 53.9391H45.3302C44.6005 53.9391 43.8405 54.6696 43.8405 55.4306V56.3438C43.8405 56.9222 44.6005 57.6528 45.3302 57.6528Z" fill="#0025FF" stroke="#0025FF" stroke-width="0.9533" stroke-miterlimit="10"/>
<path d="M113.189 68.733C112.094 67.4545 110.422 66.8761 108.75 67.0588L90.4781 69.4636V9.64866C90.4781 4.47383 86.4345 0.425293 81.2661 0.425293H9.36385C4.19541 0.425293 0.151855 4.47383 0.151855 9.64866V138.898C0.151855 144.072 4.19541 148.121 9.36385 148.121H81.2965C86.4649 148.121 90.5085 144.072 90.5085 138.898V100.695L96.9538 94.2418L103.399 100.695C104.311 101.608 105.436 101.974 106.531 101.974C108.75 101.974 110.574 100.299 110.969 98.1077L114.283 72.6293C114.679 71.1378 114.131 69.8593 113.189 68.733ZM86.8298 138.898C86.8298 142.033 84.4279 144.438 81.2965 144.438H9.36385C6.23238 144.438 3.83057 142.033 3.83057 138.898V9.64866C3.83057 6.69596 6.23238 4.10855 9.36385 4.10855H81.2965C84.4279 4.10855 86.8298 6.69596 86.8298 9.64866V69.8593L83.3335 70.4072C83.3335 70.4072 83.3335 70.4072 83.151 70.4072V20.7289C83.151 19.8157 82.239 18.872 81.2965 18.872H9.36385C8.45177 18.872 7.50929 19.7852 7.50929 20.7289V122.277C7.50929 123.373 8.42137 124.134 9.36385 124.134H81.2965C82.2086 124.134 83.151 123.404 83.151 122.277V106.387C84.4279 105.657 85.7353 104.713 86.8298 103.8V138.898ZM42.0163 102.522C48.4616 108.244 56.7616 111.38 65.4263 111.38C70.4123 111.38 75.1855 110.284 79.6243 108.427V120.42H11.4008V22.5857H79.6243V91.6544L78.3474 92.7503C72.8141 98.2904 65.6087 101.243 57.704 101.243C53.2653 101.243 48.8569 100.147 44.7829 98.2904C43.506 97.5598 41.6514 98.2904 41.1042 99.7819C40.8914 100.695 41.0738 101.791 42.0163 102.522ZM110.787 72.2336L107.291 97.712C107.291 98.2599 106.743 98.4426 106.561 98.4426C106.379 98.4426 106.196 98.4426 106.014 98.2599L98.2611 90.4977C97.8963 90.1324 97.3491 89.9498 96.9842 89.9498C96.437 89.9498 96.0722 90.1324 95.7073 90.4977L90.5389 95.6725L87.7722 98.2599C87.4074 98.6252 87.225 98.8079 86.8602 98.9905C85.7657 100.086 84.4584 101.03 83.1814 101.943C82.0869 102.674 80.7796 103.435 79.5027 104.165C75.0639 106.387 70.2907 107.483 65.3047 107.483C60.3187 107.483 55.3326 106.387 50.9242 103.983C53.1436 104.531 55.5454 104.713 57.9473 104.713C66.0648 104.713 73.635 101.761 79.7155 96.5857C80.2628 96.2205 80.6276 95.6725 81.2053 95.0942L90.7821 85.5055L91.1469 85.1402C91.8766 84.4097 91.8766 83.2834 91.1469 82.5528L90.7821 82.3702L87.1034 78.6869L83.6071 75.1863L83.4247 75.0037C83.4247 74.821 83.4247 74.6384 83.4247 74.4557C83.4247 74.2731 83.6071 73.9078 83.9719 73.9078L87.1034 73.5425L90.7821 72.9946L109.419 70.5898H109.601C109.966 70.5898 110.331 70.7725 110.513 71.1378C110.605 71.3204 110.787 71.6857 110.787 72.2336ZM83.1206 87.9407V80.3611L86.7994 84.0444L83.1206 87.9407Z" fill="#0025FF" stroke="#0025FF" stroke-width="0.9533" stroke-miterlimit="10"/>
<path d="M121.124 8.55298C106.379 8.55298 94.3696 20.5464 94.3696 35.3403C94.3696 50.1342 106.348 62.1276 121.124 62.1276C135.9 62.1276 147.878 50.1342 147.878 35.3403C147.696 20.5464 135.687 8.55298 121.124 8.55298ZM138.818 20.729H133.285C132.373 18.1416 131.248 15.9195 129.971 14.0931C133.467 15.5542 136.629 17.7763 138.818 20.729ZM131.826 35.1272C131.826 39.1758 131.278 42.8895 130.549 46.0248H111.547C110.817 42.8895 110.27 39.2062 110.27 35.1272C110.27 31.0483 110.817 27.365 111.547 24.2297H130.549C131.461 27.5476 131.826 31.2613 131.826 35.1272ZM120.577 12.2362C120.759 12.2362 120.942 12.2362 121.124 12.2362C121.306 12.2362 121.489 12.2362 121.671 12.2362C124.62 12.6015 127.569 15.5542 129.424 20.729H112.824C114.679 15.5542 117.628 12.6015 120.577 12.2362ZM112.094 14.0931C110.817 15.9499 109.693 18.1416 108.78 20.729H103.247C105.619 17.7763 108.598 15.5542 112.094 14.0931ZM100.845 46.0248C99.1732 42.7068 98.0788 38.9931 98.0788 35.1272C98.0788 31.2613 98.9908 27.5476 100.845 24.2297H107.868C107.139 27.5476 106.591 31.2613 106.591 35.1272C106.591 38.9931 106.956 42.7068 107.868 46.0248H100.845ZM103.247 49.7081H108.78C109.693 52.2955 110.817 54.5176 112.094 56.344C108.598 54.8829 105.619 52.6608 103.247 49.7081ZM121.489 58.2009C121.306 58.2009 121.124 58.2009 120.942 58.2009C120.759 58.2009 120.577 58.2009 120.394 58.2009C117.445 57.8356 114.496 54.8829 112.459 49.7081H129.059C127.387 54.8829 124.438 57.8356 121.489 58.2009ZM129.971 56.3745C131.248 54.5176 132.373 52.3259 133.285 49.7385H138.818C136.629 52.6608 133.467 54.8829 129.971 56.3745ZM134.41 46.0248C135.14 42.7068 135.504 38.9931 135.504 35.1272C135.504 31.2613 135.14 27.5476 134.227 24.2297H141.25C143.105 27.5476 144.017 31.2613 144.017 35.1272C144.017 38.9931 143.105 42.7068 141.25 46.0248H134.41Z" fill="#0025FF" stroke="#0025FF" stroke-width="0.9533" stroke-miterlimit="10"/>
</g>
<defs>
<clipPath id="clip0">
<rect width="148" height="148" fill="white" transform="translate(0 0.273193)"/>
</clipPath>
</defs>
</svg>
