<svg width="150" height="151" viewBox="0 0 150 151" fill="none" xmlns="http://www.w3.org/2000/svg">
<g clip-path="url(#clip0)">
<path d="M58.1969 11.6882H34.1447C32.788 11.6882 31.832 12.6506 31.832 14.0165C31.832 15.3824 32.788 16.3447 34.1447 16.3447H58.1969C59.5537 16.3447 60.5096 15.3824 60.5096 14.0165C60.5096 12.6506 59.5537 11.6882 58.1969 11.6882Z" fill="#0025FF"/>
<path d="M25.788 11.6882H24.3078C22.951 11.6882 21.9951 12.6506 21.9951 14.0165C21.9951 15.3824 22.951 16.3447 24.3078 16.3447H25.788C27.1447 16.3447 28.1007 15.3824 28.1007 14.0165C28.1007 12.6506 27.1756 11.6882 25.788 11.6882Z" fill="#0025FF"/>
<path d="M46.1705 143.062C49.9325 143.062 53.1087 139.865 53.1087 136.078C53.1087 132.166 50.0559 129.093 46.1705 129.093C42.4085 129.093 39.2324 132.29 39.2324 136.078C39.2324 139.865 42.4085 143.062 46.1705 143.062ZM43.8578 136.078C43.8578 134.836 44.9371 133.749 46.1705 133.749C47.404 133.749 48.4833 134.836 48.4833 136.078C48.4833 137.319 47.404 138.406 46.1705 138.406C44.9371 138.406 43.8578 137.319 43.8578 136.078Z" fill="#0025FF"/>
<path d="M143.273 25.2539C139.357 21.3114 134.115 19.1384 128.534 19.1384C122.952 19.1384 117.71 21.3114 113.794 25.2539C109.878 29.1964 107.719 34.4737 107.719 40.0925C107.719 45.7113 109.878 50.9886 113.794 54.9311C117.71 58.8735 122.952 61.0465 128.534 61.0465C134.115 61.0465 139.357 58.8735 143.273 54.9311C147.189 50.9886 149.348 45.7113 149.348 40.0925C149.348 34.4737 147.189 29.2274 143.273 25.2539ZM144.723 40.1235C144.723 44.5006 143.057 48.5983 140.005 51.6715C136.952 54.7448 132.881 56.4211 128.534 56.4211C124.186 56.4211 120.115 54.7448 117.063 51.6715C114.01 48.5983 112.345 44.5006 112.345 40.1235C112.345 35.7465 114.01 31.6488 117.063 28.5755C120.115 25.5023 124.186 23.7949 128.534 23.7949C132.881 23.7949 136.952 25.4712 140.005 28.5445C143.057 31.6177 144.723 35.7154 144.723 40.1235Z" fill="#0025FF"/>
<path d="M75.0335 70.3906H74.8485C72.9058 70.3906 71.2407 68.7143 71.0556 66.5413V65.0823C71.0556 63.1265 72.7208 61.4502 74.6635 61.4502H80.769C81.8791 61.4502 83.0817 60.55 83.0817 59.122C83.0817 57.694 81.8791 56.7938 80.769 56.7938H77.1612V53.1617C77.1612 51.7337 75.9586 50.8335 74.8485 50.8335C73.4917 50.8335 72.5358 51.7958 72.5358 53.1617V57.0731C68.9896 58.0044 66.6152 61.0777 66.6152 64.896V66.3861C66.6152 70.9494 70.3156 74.6746 74.8485 74.6746H75.0335C76.9762 74.6746 78.6413 76.3509 78.6413 78.3066V79.7967C78.6413 81.7524 76.9762 83.4287 75.0335 83.4287H68.9279C67.5712 83.4287 66.6152 84.391 66.6152 85.7569C66.6152 87.1228 67.5712 88.0852 68.9279 88.0852H72.5358V91.7172C72.5358 93.0831 73.4917 94.0454 74.8485 94.0454C75.9586 94.0454 77.1612 93.1452 77.1612 91.7172V88.1783C80.7073 87.247 83.2667 83.9254 83.2667 80.1692V78.6791C83.2667 74.1158 79.5664 70.3906 75.0335 70.3906Z" fill="#0025FF"/>
<path d="M115.768 101.589H112.253C111.142 101.589 110.402 102.334 110.402 103.451C110.402 104.569 111.142 105.314 112.253 105.314H113.733V106.804C113.733 107.922 114.473 108.667 115.583 108.667C116.508 108.667 117.433 107.922 117.433 106.804V104.941C119.468 104.383 120.948 102.334 120.948 100.099V99.3537C120.948 96.5598 118.543 94.1384 115.583 94.1384C114.658 94.1384 114.103 93.5797 114.103 92.6484V91.9033C114.103 91.1583 114.843 90.4133 115.583 90.4133H119.098C120.023 90.4133 120.948 89.6682 120.948 88.5507C120.948 87.6194 120.023 86.6881 119.098 86.6881H117.433V85.198C117.433 84.0805 116.508 83.3354 115.583 83.3354C114.473 83.3354 113.733 84.0805 113.733 85.198V87.0606C111.882 87.8056 110.402 89.6682 110.402 91.9033V92.6484C110.402 95.4422 112.808 97.8636 115.768 97.8636C116.508 97.8636 117.248 98.6086 117.248 99.3537V100.099C117.248 100.844 116.508 101.589 115.768 101.589Z" fill="#0025FF"/>
<path d="M128.534 34.3185H132.049C132.974 34.3185 133.899 33.5735 133.899 32.456C133.899 31.5247 132.974 30.5934 132.049 30.5934H130.384V29.1033C130.384 27.9858 129.459 27.2407 128.534 27.2407C127.424 27.2407 126.684 27.9858 126.684 29.1033V30.9659C124.834 31.7109 123.354 33.5735 123.354 35.8086V36.9262C123.354 39.72 125.759 42.1414 128.719 42.1414C129.459 42.1414 130.199 42.8864 130.199 43.6315V44.3765C130.199 45.1215 129.459 45.8666 128.719 45.8666H125.204C124.094 45.8666 123.354 46.6116 123.354 47.7291C123.354 48.8467 124.094 49.5917 125.204 49.5917H126.684V51.0818C126.684 52.1993 127.424 52.9444 128.534 52.9444C129.459 52.9444 130.384 52.1993 130.384 51.0818V49.2192C132.419 48.4742 133.899 46.4253 133.899 44.1902V43.4452C133.899 40.6513 131.494 38.23 128.534 38.23C127.609 38.23 127.054 37.4849 127.054 36.7399V35.8086C127.054 35.0636 127.794 34.3185 128.534 34.3185Z" fill="#0025FF"/>
<path d="M115.583 75.0471C113.393 75.0471 111.358 75.3575 109.477 75.9473C109.57 74.8608 109.57 73.7743 109.57 72.5326C109.57 59.9601 102.847 48.319 91.993 42.0793V10.2913C91.993 4.79664 87.7376 0.512695 82.2797 0.512695H10.0615C4.60353 0.512695 0.348145 4.79664 0.348145 10.2913V140.734C0.348145 146.229 4.60353 150.513 10.0615 150.513H82.2488C87.7068 150.513 91.9622 146.229 91.9622 140.734V103.017C93.1648 102.396 94.2441 101.651 95.2616 100.906C97.451 110.25 105.869 116.986 115.552 116.986C121.133 116.986 126.375 114.813 130.291 110.871C134.208 106.928 136.366 101.651 136.366 96.0322C136.397 84.4531 127.054 75.0471 115.583 75.0471ZM99.3629 94.3558C99.517 93.1451 99.7946 92.0586 100.072 90.91C100.134 90.6617 100.195 90.4134 100.257 90.1961C100.781 88.5818 101.706 86.9365 102.755 85.6948C103.464 84.8256 104.574 83.6149 105.838 82.7768C106.332 82.4043 106.825 82.1249 107.411 81.7834C107.658 81.6282 107.904 81.504 108.182 81.3177C109.816 80.4796 112.407 79.5173 115.367 79.5173C119.715 79.5173 123.785 81.1936 126.838 84.2668C129.891 87.3401 131.556 91.4378 131.556 95.8148C131.556 100.223 129.921 104.352 126.93 107.456C123.908 110.591 119.869 112.299 115.552 112.299C107.01 112.299 99.8871 105.624 99.3629 97.1187V94.3558ZM79.9361 23.6087V38.0748C78.2093 37.7954 76.5133 37.7954 74.8482 37.7954C55.6989 37.7954 40.1575 53.4721 40.1575 72.7188C40.1575 91.9966 55.7298 107.642 74.8482 107.642C76.5441 107.642 78.2401 107.487 79.9361 107.177V121.425H12.3742V23.6087H79.9361ZM87.3368 40.1547C86.4734 39.8132 85.61 39.5028 84.5615 39.1923V21.4668C84.5615 20.2561 83.4514 19.1385 82.2488 19.1385H10.0615C8.85891 19.1385 7.74881 20.2561 7.74881 21.4668V123.94C7.74881 125.368 8.95142 126.268 10.0615 126.268H82.2488C83.3589 126.268 84.5615 125.368 84.5615 123.94V106.214C85.61 105.904 86.4734 105.624 87.3368 105.252V140.703C87.3368 143.621 85.1474 145.825 82.2488 145.825H10.0615C7.16292 145.825 4.97356 143.621 4.97356 140.703V10.2913C4.97356 7.46634 7.25543 5.16915 10.0615 5.16915H82.2488C85.0549 5.16915 87.3368 7.46634 87.3368 10.2913V40.1547ZM86.7201 100.44C85.795 100.844 84.9316 101.247 83.9756 101.527C83.729 101.589 83.5131 101.651 83.2664 101.744C82.2796 102.023 81.3546 102.303 80.3061 102.458C78.4868 102.831 76.6675 103.017 74.8482 103.017C58.2583 103.017 44.783 89.42 44.783 72.7499C44.783 56.0797 58.2892 42.4829 74.8482 42.4829C76.6675 42.4829 78.4868 42.6692 80.337 43.0417C81.3546 43.1969 82.2796 43.4763 83.2664 43.7557C83.5131 43.8177 83.729 43.8798 83.9756 43.973C85.0857 44.2834 86.3192 44.7801 87.6143 45.432C89.0944 46.0528 90.3895 46.86 91.253 47.4498C99.8254 53.1927 104.944 62.6609 104.944 72.7809C104.944 74.7366 104.759 76.7234 104.451 78.4618C98.6228 82.249 95.015 88.6129 94.7991 95.5044C93.8432 96.4668 92.6714 97.336 91.3146 98.081L91.2838 98.112C90.4512 98.6708 89.1253 99.4779 87.6451 100.13C87.3059 100.192 87.0284 100.316 86.7201 100.44Z" fill="#0025FF"/>
</g>
<defs>
<clipPath id="clip0">
<rect width="149" height="150" fill="white" transform="translate(0.348145 0.512695)"/>
</clipPath>
</defs>
</svg>
