<svg width="107" height="138" viewBox="0 0 107 138" fill="none" xmlns="http://www.w3.org/2000/svg">
<path fill-rule="evenodd" clip-rule="evenodd" d="M84.8047 15.7015L80.7521 27.2443L92.6407 24.3577L98.3161 47.7202L82.8999 51.4646L92.5918 64.0246L75.4458 77.254L75.5917 77.541C79.4261 85.2199 80.3972 94.3109 77.7846 103.058L77.6051 103.64L77.4496 104.118L77.2847 104.599C70.9546 122.629 51.3073 132.179 33.3796 125.885C15.4519 119.59 6.08647 99.8545 12.4166 81.8248C15.6034 72.748 22.2173 65.7462 30.3483 61.9015L30.944 61.6257L25.8333 40.5868L41.2491 36.84L31.5578 24.282L50.5925 9.59462L58.0663 19.2782L62.1201 7.73707L84.8047 15.7015Z" fill="#D20073"/>
<path d="M75.2436 20.2935L69.0999 37.7924L87.123 33.4156L89.2576 42.2026L69.9074 46.9031L82.0722 62.6685L74.9131 68.1925L63.5822 53.5082L57.977 69.4749C69.1056 75.6565 74.5342 89.1412 70.3534 101.691L70.2082 102.115C65.245 116.251 49.8687 123.725 35.8641 118.808C21.8595 113.891 14.53 98.4456 19.4931 84.3093C23.9409 71.6407 36.752 64.323 49.444 66.479L55.0491 50.5123L37.0267 54.8909L34.8921 46.1039L54.2416 41.4016L42.0775 25.638L49.2366 20.114L60.5668 34.7965L66.7117 17.298L75.2436 20.2935ZM50.8416 76.1482C41.5053 72.8703 31.2543 77.8528 27.9456 87.2769C24.6368 96.7011 29.5232 106.998 38.8596 110.276C48.196 113.554 58.4469 108.572 61.7556 99.1474C65.0644 89.7232 60.178 79.4261 50.8416 76.1482Z" fill="black"/>
</svg>
