<svg width="155" height="177" viewBox="0 0 155 177" fill="none" xmlns="http://www.w3.org/2000/svg">
<path fill-rule="evenodd" clip-rule="evenodd" d="M30.9795 23.5173L81.4429 8.94552L89.2746 36.0672L120.254 27.1216L134.488 76.416L103.509 85.3616L123.077 153.127L72.6131 167.699L53.0453 99.9334L22.0658 108.879L7.83162 59.5846L38.8111 50.639L30.9795 23.5173Z" fill="#FA00FF"/>
<path d="M82.3453 48.6222L74.5137 21.5006L43.5342 30.4462L51.3658 57.5679L20.3863 66.5135L28.9943 96.3239L59.9738 87.3783L79.5416 155.144L110.521 146.198L90.9533 78.4327L121.933 69.4871L113.325 39.6766L82.3453 48.6222ZM111.889 63.944L80.9093 72.8896L100.477 140.655L85.0848 145.099L65.517 77.3343L34.5375 86.2799L30.4304 72.0566L61.4099 63.111L53.5782 35.9893L68.9706 31.5446L76.8022 58.6663L107.782 49.7207L111.889 63.944Z" fill="black"/>
</svg>
