<svg width="74" height="125" viewBox="0 0 74 125" fill="none" xmlns="http://www.w3.org/2000/svg">
<path fill-rule="evenodd" clip-rule="evenodd" d="M48.9147 0L48.9147 12.6251L59.5041 5.74994L73.0174 26.5585L59.2863 35.4748L73.0174 44.3916L60.8446 63.135L61.0848 63.3647C67.4436 69.531 71.4971 78.0511 71.9434 87.4615L71.9678 88.0901L71.9798 88.6084L71.9837 89.1335C71.9837 108.854 56.1173 124.869 36.5087 124.869C16.9001 124.869 1.03373 108.854 1.03373 89.1335C1.03373 79.2057 5.08024 70.1267 11.6832 63.6033L12.169 63.1311L0 44.3921L13.7299 35.4735L0 26.5586L13.5135 5.7497L24.1015 12.6238L24.1033 0H48.9147Z" fill="#FF8E00"/>
<path d="M41.1744 7.73999L41.1744 26.8796L57.2277 16.4562L62.3102 24.2826L45.0753 35.4748L62.3102 46.6674L57.2277 54.4937L41.1744 44.0688L41.175 61.5323C54.1245 63.747 64.0205 75.0216 64.2397 88.6705L64.2434 89.1335C64.2434 104.595 51.8261 117.129 36.5084 117.129C21.1908 117.129 8.77344 104.595 8.77344 89.1335C8.77344 75.2772 18.7462 63.772 31.8419 61.5323L31.8412 44.0688L15.7892 54.4937L10.7066 46.6674L27.9403 35.4735L10.7066 24.2826L15.7892 16.4562L31.8412 26.8796L31.8425 7.73999H41.1744ZM36.5084 70.4697C26.2967 70.4697 18.0184 78.8258 18.0184 89.1335C18.0184 99.4413 26.2967 107.797 36.5084 107.797C46.7202 107.797 54.9984 99.4413 54.9984 89.1335C54.9984 78.8258 46.7202 70.4697 36.5084 70.4697Z" fill="black"/>
</svg>
