<svg width="149" height="157" viewBox="0 0 149 157" fill="none" xmlns="http://www.w3.org/2000/svg">
<path d="M0 33.9936L17.6398 100.647L30.4557 97.2538L46.1935 156.712L149 129.501L133.264 70.0449L146.08 66.6537L128.44 0L0 33.9936Z" fill="#FA00FF"/>
<path d="M24.4521 89.8666C21.0541 87.6734 18.4361 83.5767 16.5979 77.5765L26.1602 73.2353C27.2131 76.8274 28.424 79.3604 29.7928 80.8346C31.1617 82.3087 32.7636 82.8028 34.5988 82.317C35.9616 81.956 36.8333 81.2595 37.2138 80.2276C37.5944 79.1957 37.6027 77.9991 37.2387 76.6378C36.637 74.3815 35.6246 72.5983 34.2017 71.2881C32.7787 69.978 30.736 68.6708 28.0735 67.3666L20.7947 63.7949C17.9216 62.4411 15.5645 60.8023 13.7234 58.8784C11.8822 56.9545 10.5443 54.4177 9.70942 51.2679C8.47898 46.6184 8.90618 42.6713 10.991 39.4268C13.0758 36.1822 16.5355 33.9206 21.37 32.642C26.537 31.2747 30.5231 31.8155 33.3285 34.2643C36.1338 36.7132 38.2893 40.2022 39.7951 44.7313L30.1223 48.8807C29.2318 45.9009 28.3037 43.7702 27.338 42.4886C26.3723 41.207 25.0185 40.7986 23.2766 41.2634C22.0041 41.6018 21.1474 42.3494 20.7067 43.5062C20.2613 44.6907 20.2075 45.9869 20.5533 47.2043C21.0526 49.083 21.8837 50.5601 23.0465 51.6356C24.2092 52.7112 25.8894 53.7874 28.0871 54.8644L35.2102 58.3978C38.5691 60.072 41.3752 62.032 43.6285 64.2778C45.8818 66.5235 47.4816 69.4312 48.4277 73.0007C49.1497 75.7263 49.1828 78.3195 48.527 80.7804C47.8766 83.2353 46.5471 85.457 44.6913 87.1906C42.7749 89.0047 40.3629 90.296 37.4553 91.0647C32.1815 92.4591 27.8471 92.0597 24.4521 89.8666Z" fill="black"/>
<path d="M47.4033 26.5116L60.3004 23.0978L86.4127 77.2764L75.6975 80.1103L70.2575 68.127L61.2322 70.5142L62.3604 83.6369L51.4353 86.5295L47.4033 26.5116ZM67.2273 61.2363L57.6944 39.1718L60.4019 63.0436L67.2273 61.2363Z" fill="black"/>
<path d="M73.3691 19.639L97.4733 13.2581L99.583 21.2229L87.0266 24.5532L91.0879 39.9187L101.731 37.1006L103.874 45.2052L93.2472 48.0188L100.039 73.6731L88.4797 76.7326L73.3691 19.639Z" fill="black"/>
<path d="M99.9414 12.6061L124.817 6.02216L126.945 14.0569L113.633 17.5812L117.642 32.7346L127.933 30.0112L130.079 38.1182L119.788 40.8415L124.526 58.7431L137.99 55.1804L140.077 63.0775L115.05 69.6952L99.9414 12.6061Z" fill="black"/>
<path d="M53.03 146.031C49.632 143.838 47.0139 139.742 45.1758 133.743L54.738 129.402C55.7909 132.995 57.0018 135.528 58.3707 137.001C59.7395 138.473 61.3415 138.967 63.1766 138.481C64.5394 138.123 65.4111 137.427 65.7917 136.394C66.1722 135.361 66.182 134.164 65.821 132.804C65.2193 130.548 64.2077 128.767 62.7863 127.461C61.3648 126.156 59.3206 124.848 56.6536 123.537L49.3725 119.961C46.4995 118.607 44.1424 116.969 42.3012 115.045C40.4601 113.121 39.1228 110.583 38.2895 107.432C37.0591 102.779 37.4862 98.8324 39.5711 95.5908C41.6559 92.3493 45.1156 90.0884 49.9501 88.8083C55.1201 87.441 59.1062 87.9818 61.9085 90.4306C64.7109 92.8795 66.8664 96.3692 68.3751 100.9L58.6865 105.047C57.7945 102.067 56.8664 99.9372 55.9023 98.6571C54.9381 97.3771 53.5843 96.9679 51.8409 97.4297C50.5698 97.7667 49.7102 98.5097 49.2619 99.6589C48.8105 100.842 48.755 102.14 49.104 103.357C49.6034 105.239 50.4345 106.716 51.5972 107.788C52.76 108.861 54.4402 109.937 56.6378 111.017L63.7858 114.564C67.1402 116.238 69.9448 118.199 72.1996 120.446C74.4544 122.694 76.0541 125.601 76.9987 129.167C77.7193 131.896 77.7516 134.49 77.0958 136.949C76.4437 139.403 75.1145 141.624 73.26 143.359C71.3512 145.164 68.9407 146.456 66.0286 147.233C60.7578 148.629 56.425 148.228 53.03 146.031Z" fill="black"/>
<path d="M67.3105 84.9704L92.1886 78.3865L94.3141 86.4212L81.0018 89.9456L85.009 105.103L95.2978 102.38L97.4436 110.485L87.1525 113.204L91.8908 131.107L105.352 127.545L107.444 135.442L82.4233 142.066L67.3105 84.9704Z" fill="black"/>
<path d="M111.523 101.626L93.6533 77.9961L104.655 75.0945L115.785 89.7967L117.058 71.8116L126.927 69.1988L124.308 101.193L143.019 126.038L132.164 128.912L119.917 112.838L118.134 132.624L108.344 135.216L111.523 101.626Z" fill="black"/>
</svg>
