<svg width="402" height="93" viewBox="0 0 402 93" fill="none" xmlns="http://www.w3.org/2000/svg">
<path d="M207.087 92.1748C231.436 92.1748 251.175 72.4362 251.175 48.0874C251.175 23.7386 231.436 4 207.087 4C182.739 4 163 23.7386 163 48.0874C163 72.4362 182.739 92.1748 207.087 92.1748Z" fill="#00FF00"/>
<path d="M233.802 48.2749V49.0253C233.802 63.7336 221.833 75.7029 207.125 75.7029C192.416 75.7029 180.447 63.7336 180.447 49.0253V48.2749H173.693V49.0253C173.693 67.4857 188.702 82.4567 207.125 82.4567C225.548 82.4567 240.556 67.4482 240.556 49.0253V48.2749H233.802Z" fill="black"/>
<path d="M195.193 23.6987C191.628 23.6987 188.852 29.7396 188.852 37.469C188.852 45.1984 191.628 51.2393 195.193 51.2393C198.757 51.2393 201.496 45.1608 201.496 37.469C201.496 29.7396 198.72 23.6987 195.193 23.6987Z" fill="black"/>
<path d="M219.018 23.6987C215.453 23.6987 212.677 29.7396 212.677 37.469C212.677 45.1984 215.453 51.2393 219.018 51.2393C222.582 51.2393 225.359 45.1984 225.359 37.469C225.359 29.7396 222.582 23.6987 219.018 23.6987Z" fill="black"/>
<path d="M16.8002 26.07H5.64023V14.1H44.0702V26.07H33.0002V87H16.8002V26.07ZM50.4841 14.1H66.5941V87H50.4841V14.1ZM77.4645 14.1H93.5745V43.89L105.814 14.1H121.564L108.064 47.04L122.194 87H105.814L95.2845 54.78L93.5745 57.66V87H77.4645V14.1ZM135.189 26.07H124.029V14.1H162.459V26.07H151.389V87H135.189V26.07ZM260.892 14.1H277.002V43.89L289.242 14.1H304.992L291.492 47.04L305.622 87H289.242L278.712 54.78L277.002 57.66V87H260.892V14.1ZM311.957 14.1H344.717V25.08H328.067V43.17H340.757V54.33H328.067V76.11H344.897V87H311.957V14.1ZM352.211 14.1H363.551L378.491 49.2V14.1H391.811V87H380.921L365.981 49.2V87H352.211V14.1Z" fill="white"/>
</svg>
