<svg width="177" height="150" viewBox="0 0 177 150" fill="none" xmlns="http://www.w3.org/2000/svg">
<path fill-rule="evenodd" clip-rule="evenodd" d="M88.4428 0L176.935 150H0L88.4428 0Z" fill="#FF42D5"/>
<path d="M88.3297 13.7424L14.3154 142.006H162.048L88.3297 13.7424ZM89.2179 125.676C101.948 125.676 112.014 115.285 112.014 102.815C112.014 98.361 110.83 94.5012 108.758 90.9383C120.304 97.4703 128.001 107.565 128.001 107.565C128.001 107.565 111.126 130.13 88.6258 130.13C66.1254 130.13 48.9541 107.565 48.9541 107.565C48.9541 107.565 57.2437 96.2826 70.2702 89.7507C67.9018 93.3135 66.4215 97.7672 66.4215 102.815C66.4215 115.285 76.4874 125.676 89.2179 125.676ZM73.2308 98.6579C73.2308 95.095 75.8953 92.4228 79.448 92.4228C83.0007 92.4228 85.6652 95.095 85.6652 98.6579C85.6652 102.221 83.0007 104.893 79.448 104.893C75.8953 104.893 73.2308 101.924 73.2308 98.6579ZM135.403 111.128L148.725 133.99H107.277C121.192 128.349 130.962 117.066 135.403 111.128ZM124.449 92.1259C115.863 84.4063 103.429 76.9837 88.3297 76.9837C73.2308 76.9837 60.7964 84.4063 52.2107 92.1259L88.3297 29.4785L124.449 92.1259ZM41.2566 111.128C45.6975 116.769 55.4674 128.052 69.6781 133.99H28.2301L41.2566 111.128Z" fill="black"/>
</svg>
