<svg width="131" height="131" viewBox="0 0 131 131" fill="none" xmlns="http://www.w3.org/2000/svg">
<path fill-rule="evenodd" clip-rule="evenodd" d="M131 65.5004C131 29.3257 101.674 0 65.5 0C29.3264 0 0 29.3257 0 65.5004C0 101.675 29.3264 131 65.5 131C101.674 131 131 101.675 131 65.5004Z" fill="#00FF00"/>
<path d="M125.739 64.2489C125.735 64.1123 125.733 63.9759 125.729 63.8398C125.72 63.5118 125.707 63.1843 125.692 62.8568C125.68 62.581 125.666 62.3058 125.649 62.0308C125.638 61.8399 125.627 61.649 125.614 61.4584C125.595 61.1678 125.573 60.8778 125.55 60.588C125.549 60.5814 125.548 60.5748 125.548 60.5681C124.389 46.3393 118.288 33.1162 108.071 22.9077C96.6684 11.5145 81.5076 5.24001 65.3821 5.24001C49.2523 5.24001 34.0886 11.5145 22.6842 22.9074C12.2491 33.3321 6.10738 46.9016 5.1389 61.4757C5.12743 61.6439 5.118 61.8124 5.10806 61.9806C5.09073 62.2783 5.07442 62.5762 5.06142 62.8749C5.04715 63.1958 5.03517 63.5169 5.02625 63.8383C5.02243 63.9752 5.01911 64.1123 5.01606 64.2494C5.00663 64.6852 5 65.1213 5 65.5576C5 65.9947 5.00637 66.4313 5.01606 66.8676C5.01886 67.0037 5.02243 67.1398 5.02625 67.2764C5.03543 67.6026 5.0474 67.9296 5.06219 68.2558C5.07442 68.5372 5.08971 68.8168 5.10577 69.0971C5.11673 69.2829 5.12718 69.4693 5.13992 69.6548C5.15954 69.9479 5.18146 70.241 5.20517 70.5328C5.20517 70.5343 5.20542 70.5359 5.20542 70.5376C6.36199 84.7738 12.4634 98.0028 22.6845 108.212C34.0879 119.602 49.2515 125.876 65.3821 125.876C81.5086 125.876 96.6694 119.603 108.072 108.212C118.277 98.0168 124.374 84.8126 125.544 70.6011C125.547 70.571 125.549 70.541 125.552 70.5109C125.574 70.2315 125.595 69.953 125.614 69.6731C125.628 69.4657 125.64 69.257 125.651 69.0495C125.667 68.7916 125.68 68.5342 125.691 68.276C125.707 67.9424 125.718 67.609 125.728 67.2749C125.732 67.14 125.735 67.0045 125.738 66.8696C125.748 66.4331 125.755 65.9957 125.755 65.5581C125.755 65.1213 125.749 64.6849 125.739 64.2489ZM54.6197 9.83393C51.1984 12.9196 48.0906 17.5076 45.466 23.4485C44.3293 26.0221 43.3104 28.7889 42.4127 31.7127C34.1243 32.1868 26.0512 32.9238 18.2417 33.9155C26.5393 21.6214 39.5267 12.7368 54.6197 9.83393ZM8.63818 62.7518C8.6443 62.6277 8.6522 62.5038 8.65908 62.38C8.67514 62.0907 8.69374 61.8022 8.71413 61.5144C8.72534 61.3562 8.73579 61.1976 8.74828 61.0394C8.77504 60.7004 8.80588 60.3625 8.83876 60.0253C8.85966 59.8117 8.88234 59.5984 8.90553 59.3851C8.92363 59.2179 8.94325 59.0512 8.96288 58.8848C9.01105 58.4765 9.0638 58.0689 9.12064 57.6622C9.13593 57.5528 9.15071 57.4435 9.16677 57.3342C9.205 57.0722 9.24501 56.8104 9.28706 56.5489C9.29675 56.4888 9.3072 56.4289 9.31688 56.3687C9.39666 55.8809 9.48305 55.3947 9.57583 54.9094C9.59443 54.8123 9.61278 54.7149 9.6319 54.6178C9.78125 53.8555 9.94716 53.0968 10.1276 52.3419C10.1735 52.1502 10.2204 51.9588 10.2683 51.7677C10.3119 51.5936 10.3549 51.4193 10.4001 51.2457C10.4941 50.8848 10.5917 50.5255 10.6926 50.1677C10.7197 50.0718 10.7474 49.976 10.775 49.8802C11.997 45.6395 13.7036 41.6027 15.8279 37.8299C24.0529 36.7088 32.5936 35.8833 41.3798 35.3514C39.1385 43.9189 37.8851 53.6351 37.7533 63.7741H8.59919C8.60989 63.4328 8.62161 63.0918 8.63818 62.7518ZM10.373 79.7716C10.3585 79.715 10.3447 79.6592 10.3305 79.6024C10.2443 79.2654 10.162 78.927 10.0817 78.5875C10.0539 78.469 10.0254 78.351 9.99839 78.2325C9.91836 77.8841 9.84241 77.5337 9.76901 77.1827C9.7318 77.0035 9.69587 76.8241 9.66019 76.6444C9.61839 76.4349 9.57837 76.2249 9.53912 76.0139C9.48407 75.72 9.43132 75.4244 9.38085 75.129C9.34466 74.9177 9.30898 74.7062 9.27509 74.4936C9.24144 74.2816 9.20908 74.0695 9.17773 73.857C9.14791 73.6539 9.11987 73.4507 9.09209 73.2471C9.05106 72.9459 9.01232 72.6449 8.97613 72.3426C8.94988 72.1229 8.92414 71.9024 8.90044 71.682C8.8803 71.4957 8.86042 71.3086 8.84207 71.1223C8.80741 70.7685 8.7753 70.4148 8.74726 70.0593C8.73605 69.9168 8.72662 69.7743 8.71642 69.6316C8.69451 69.3268 8.67488 69.0209 8.65806 68.7141C8.65194 68.6002 8.64455 68.4857 8.63895 68.3713C8.62212 68.0285 8.6104 67.6855 8.5997 67.3411H37.7538C37.8856 77.4857 39.1398 87.2055 41.3826 95.7753C32.5694 95.2421 24.0276 94.413 15.8292 93.286C13.4607 89.0823 11.6109 84.5488 10.373 79.7716ZM18.2443 97.2043C26.0309 98.2001 34.1039 98.9397 42.415 99.4145C43.3121 102.335 44.3303 105.1 45.466 107.671C48.0898 113.61 51.1969 118.197 54.6179 121.282C39.5274 118.379 26.5421 109.496 18.2443 97.2043ZM63.5983 122.138C58.1383 121.114 52.8015 115.445 48.7298 106.229C47.8113 104.15 46.973 101.937 46.2163 99.6105C51.911 99.8793 57.7109 100.025 63.5983 100.05V122.138ZM63.5983 96.482C57.3335 96.4555 51.1706 96.2896 45.1298 95.985C42.7769 87.4509 41.4585 77.6348 41.3219 67.3419H63.5983V96.482ZM63.5983 63.7738H41.3219C41.4585 53.4865 42.7762 43.6745 45.1275 35.1427C51.18 34.8368 57.3439 34.6701 63.5983 34.6434V63.7738ZM63.5983 31.0756C57.7199 31.1005 51.9189 31.2468 46.214 31.5165C46.9712 29.1875 47.8105 26.9717 48.73 24.8905C52.8018 15.6723 58.1386 10.0019 63.5983 8.97784V31.0756ZM112.516 33.916C104.706 32.9241 96.6337 32.187 88.3443 31.7127C87.4469 28.7892 86.4285 26.0224 85.2923 23.449C82.6687 17.5076 79.5619 12.9196 76.1414 9.83367C91.2327 12.7361 104.219 21.6209 112.516 33.916ZM67.1664 8.97809C72.6235 10.0026 77.9581 15.6729 82.0283 24.8905C82.9473 26.972 83.7861 29.1875 84.5433 31.5165C78.8409 31.2468 73.0428 31.1003 67.1664 31.0756V8.97809ZM67.1664 34.6434C73.4179 34.6699 79.5793 34.8366 85.629 35.1424C87.9796 43.6742 89.2967 53.4862 89.4333 63.7738H67.1664V34.6434ZM67.1661 67.3419H89.4333C89.2967 77.6351 87.9788 87.4512 85.6262 95.9853C79.589 96.2898 73.4284 96.4558 67.1659 96.482V67.3419H67.1661ZM67.1664 122.138V100.05C73.0514 100.025 78.8488 99.8793 84.5407 99.611C83.7843 101.937 82.9463 104.15 82.0283 106.229C77.9586 115.445 72.624 121.114 67.1664 122.138ZM76.1432 121.282C79.563 118.197 82.6692 113.61 85.292 107.671C86.4275 105.1 87.4449 102.335 88.342 99.4147C96.6536 98.9402 104.727 98.2003 112.513 97.2043C104.216 109.497 91.2319 118.38 76.1432 121.282ZM122.117 68.3784C122.111 68.485 122.104 68.5915 122.098 68.698C122.081 69.0189 122.06 69.3385 122.038 69.6576C122.028 69.7873 122.02 69.9173 122.01 70.046C121.981 70.4143 121.948 70.7823 121.911 71.1485C121.895 71.3132 121.877 71.4776 121.86 71.6425C121.832 71.9083 121.801 72.1734 121.769 72.4382C121.743 72.6533 121.716 72.8684 121.687 73.0825C121.65 73.362 121.611 73.6401 121.57 73.9174C121.544 74.091 121.518 74.263 121.491 74.436C121.437 74.7747 121.381 75.1127 121.322 75.4499C121.297 75.5867 121.272 75.7234 121.247 75.8605C121.191 76.1612 121.134 76.4607 121.073 76.7599C121.05 76.8774 121.026 76.9949 121.003 77.1121C120.919 77.5135 120.832 77.9139 120.741 78.3123C120.731 78.3553 120.72 78.3984 120.71 78.4417C119.482 83.7082 117.515 88.6939 114.929 93.2873C106.731 94.4148 98.1889 95.2441 89.3747 95.7768C91.6165 87.207 92.8704 77.4865 93.0017 67.3424H122.156C122.145 67.688 122.133 68.0339 122.117 68.3784ZM93.0017 63.7738C92.8694 53.6346 91.6165 43.9184 89.376 35.3509C98.1632 35.8825 106.703 36.7085 114.929 37.8299C117.075 41.6422 118.796 45.7238 120.02 50.0132C120.025 50.029 120.029 50.0448 120.034 50.0606C120.154 50.4783 120.267 50.8983 120.377 51.3199C120.399 51.405 120.419 51.4904 120.441 51.5758C120.518 51.8773 120.591 52.1801 120.663 52.4836C120.697 52.625 120.731 52.766 120.763 52.9077C120.84 53.2416 120.913 53.5767 120.983 53.9129C121.024 54.1096 121.063 54.3066 121.102 54.5039C121.139 54.6889 121.174 54.8747 121.209 55.0603C121.272 55.3959 121.332 55.7321 121.389 56.069C121.42 56.2479 121.45 56.4266 121.479 56.606C121.515 56.8285 121.548 57.0515 121.581 57.2748C121.608 57.4583 121.633 57.6423 121.658 57.8266C121.703 58.149 121.744 58.4719 121.783 58.7953C121.808 59.0045 121.832 59.2143 121.855 59.424C121.875 59.6157 121.896 59.8076 121.914 59.9998C121.949 60.35 121.981 60.7007 122.008 61.0526C122.02 61.1984 122.029 61.3447 122.04 61.4905C122.061 61.7917 122.08 62.0935 122.098 62.396C122.104 62.5125 122.112 62.629 122.117 62.7454C122.134 63.0875 122.145 63.4305 122.156 63.7738H93.0017Z" fill="black"/>
</svg>
