<svg width="108" height="108" viewBox="0 0 108 108" fill="none" xmlns="http://www.w3.org/2000/svg">
<path d="M60.8926 98.3905C36.3764 102.197 13.4162 85.4089 9.6094 60.8927C5.80265 36.3766 22.5909 13.4163 47.1071 9.60955C71.6233 5.80279 94.5836 22.5911 98.3903 47.1073C102.197 71.6234 85.4088 94.5837 60.8926 98.3905Z" fill="black" stroke="#00FF00" stroke-width="4"/>
<path d="M28.3286 58.1713L28.4407 58.8933C30.6379 73.0434 43.9409 82.7703 58.091 80.5732C72.241 78.376 81.968 65.0731 79.7709 50.923L79.6588 50.201L86.1562 49.1921L86.2683 49.9141C89.026 67.6739 76.8235 84.3186 59.0998 87.0707C41.3762 89.8227 24.6953 77.6259 21.9433 59.9022L21.8312 59.1802L28.3286 58.1713Z" fill="#00FF00"/>
<path d="M61.8 28.7597C65.2292 28.2273 68.8028 33.6241 69.9574 41.0601C71.1121 48.4962 69.3433 54.7226 65.914 55.255C62.4848 55.7875 58.9417 50.3489 57.7927 42.949C56.6381 35.513 58.4068 29.2866 61.8 28.7597Z" fill="#00FF00"/>
<path d="M38.881 32.3189C42.3102 31.7864 45.8838 37.1833 47.0385 44.6193C48.1931 52.0553 46.4243 58.2817 42.9951 58.8142C39.5659 59.3467 35.9923 53.9498 34.8376 46.5138C33.683 39.0778 35.4518 32.8514 38.881 32.3189Z" fill="#00FF00"/>
</svg>
