<svg width="169" height="169" viewBox="0 0 169 169" fill="none" xmlns="http://www.w3.org/2000/svg">
<path fill-rule="evenodd" clip-rule="evenodd" d="M169 84.5006C169 37.8324 131.168 0 84.5 0C37.8333 0 0 37.8324 0 84.5006C0 131.169 37.8333 169 84.5 169C131.168 169 169 131.169 169 84.5006Z" fill="#FF9D22"/>
<path fill-rule="evenodd" clip-rule="evenodd" d="M127.101 35.49C134.547 35.4889 140.624 41.011 145.329 46.1893C148.32 49.4814 149.811 53.6878 147.799 57.8413C146.976 59.5403 145.867 61.1548 144.538 62.4964C143.849 63.192 143.061 63.7963 142.264 64.3668C141.129 65.1808 136.905 68.3376 135.344 67.4413C133.66 66.474 135.299 63.8888 136.015 62.8166C138.372 59.2866 139.83 56.176 136.678 52.4003C134.989 50.3777 128.388 44.8172 126.653 49.3111C126.136 50.6494 127.246 52.5108 125.987 53.3417C124.666 54.2121 122.69 53.8975 121.434 53.1376C117.963 51.0384 115.52 45.629 117.103 41.896C118.943 37.5543 122.438 35.49 127.101 35.49ZM80.5059 95.0549C80.5059 95.0549 86.9333 88.3988 90.1509 92.7169C93.3695 97.0349 88.5503 101.47 88.6534 101.622C89.1019 102.285 92.1077 118.515 86.0494 119.897C79.9922 121.281 77.7455 106.748 77.4056 106.648C73.5474 106.575 69.788 104.305 69.3569 100.683C68.2851 91.6635 80.5059 95.0549 80.5059 95.0549ZM96.0299 78.2225C94.4852 79.8704 95.0448 81.8214 92.406 82.36C91.1915 82.6085 89.1434 82.5459 88.3669 81.3162C87.5084 79.9543 88.3866 77.8264 89.0832 76.6827C90.6423 74.1173 90.961 74.4548 87.9372 73.0857C86.3884 72.3855 83.8846 71.1943 83.1226 69.6878C81.9735 67.4145 84.2188 65.9323 86.2223 65.7827C87.7918 65.6655 88.9679 66.3192 90.2448 67.1255C91.6389 68.0066 93.2281 69.2887 93.2281 69.2887C93.2281 69.2887 93.9112 67.6186 94.2247 67.1063C95.2202 65.4756 95.024 64.6349 97.3814 64.2702C98.9832 64.0226 100.83 64.6824 101.181 66.4344C101.503 68.047 100.218 69.9131 99.5281 71.268C98.3749 73.5323 98.2409 72.7927 101.149 74.4649C103.077 75.5743 110.964 78.9994 107.116 82.0346C103.806 84.6454 98.625 79.9694 96.0299 78.2225ZM62.1915 86.19C53.5778 86.19 53.9202 77.5052 61.4831 76.1578C65.198 75.4967 70.0754 77.9227 69.1834 82.1518C68.6703 84.5818 65.3826 86.19 62.1915 86.19ZM42.6788 58.4974C41.3907 60.3551 40.2544 60.3264 38.5006 61.4507C36.0288 63.0348 34.1979 66.2168 33.1663 69.0734C32.5948 70.6576 31.5962 73.0326 32.7435 74.5373C32.8382 74.6638 36.9636 77.7446 35.4354 81.6095C33.5208 86.4561 27.5688 83.8201 26.6979 83.481C23.6273 82.2866 21.7523 80.5185 20.779 77.3273C17.9131 67.9354 27.8782 50.2711 38.3982 50.7079C43.0036 50.8988 45.6603 54.198 42.6788 58.4974Z" fill="black"/>
<path fill-rule="evenodd" clip-rule="evenodd" d="M129.098 100.255C123.372 119.65 104.626 134.121 84.6187 135.089C71.4515 135.727 57.9487 133.719 46.7044 126.339C41.5914 122.982 37.6557 119.096 34.2968 113.916C31.8296 110.112 27.7099 102.577 28.962 88.6243C29.6989 80.4139 32.4767 74.6094 32.9918 73.6427C33.7677 72.1893 35.4752 69.4981 36.329 68.5446C38.4641 66.1595 44.1073 61.6421 47.6783 63.5711C53.3692 66.644 45.3648 72.7799 43.4159 75.5651C40.4595 79.7928 39.1534 85.4344 38.6275 90.5183C37.4501 101.88 41.2678 112.741 51.0394 119.018C66.0127 128.637 87.1292 129.089 102.424 120.071C118.054 110.858 126.933 86.5115 120.209 69.4172C116.198 59.2177 106.133 53.4197 95.6499 52.1796C90.6353 51.5858 85.2507 52.1348 80.3725 53.2557C76.2041 54.2125 70.2546 57.9426 66.162 57.9382C59.7656 57.9328 67.7841 50.3971 70.0534 48.9033C73.8938 46.3762 77.8078 44.9786 82.2965 44.4285C93.0376 43.1119 103.963 44.3334 113.605 49.6021C132.628 59.9919 134.703 81.28 129.098 100.255Z" fill="black"/>
</svg>
