<svg width="150" height="35" viewBox="0 0 150 35" fill="none" xmlns="http://www.w3.org/2000/svg">
<g clip-path="url(#clip0)">
<path d="M78.25 34.25C87.7031 34.25 95.375 26.5781 95.375 17.125C95.375 7.67188 87.7031 0 78.25 0C68.7969 0 61.125 7.67188 61.125 17.125C61.125 26.5781 68.7969 34.25 78.25 34.25Z" fill="black"/>
<path d="M88.625 17.2031V17.5C88.625 23.2187 83.9688 27.8594 78.2656 27.8594C72.5469 27.8594 67.9063 23.2031 67.9063 17.5V17.2031H65.2812V17.5C65.2812 24.6719 71.1094 30.4844 78.2656 30.4844C85.4219 30.4844 91.25 24.6562 91.25 17.5V17.2031H88.625Z" fill="#00FF00"/>
<path d="M73.625 7.65625C72.2344 7.65625 71.1562 10 71.1562 13C71.1562 16 72.2344 18.3438 73.625 18.3438C75.0156 18.3438 76.0781 15.9844 76.0781 13C76.0781 10 75 7.65625 73.625 7.65625Z" fill="#00FF00"/>
<path d="M82.875 7.65625C81.4844 7.65625 80.4062 10 80.4062 13C80.4062 16 81.4844 18.3438 82.875 18.3438C84.2656 18.3438 85.3438 16 85.3438 13C85.3438 10 84.2656 7.65625 82.875 7.65625Z" fill="#00FF00"/>
<path d="M4.32812 8.57812H0V3.92188H14.9219V8.57812H10.625V32.25H4.32812V8.57812ZM17.4219 3.92188H23.6719V32.2344H17.4219V3.92188ZM27.8906 3.92188H34.1406V15.5L38.8906 3.92188H45.0156L39.7656 16.7187L45.25 32.2344H38.8906L34.7969 19.7187L34.125 20.8437V32.2344H27.875L27.8906 3.92188ZM50.3125 8.57812H45.9844V3.92188H60.9062V8.57812H56.6094V32.25H50.3125V8.57812ZM99.1406 3.92188H105.391V15.5L110.141 3.92188H116.266L111.016 16.7187L116.5 32.2344H110.141L106.047 19.7187L105.375 20.8437V32.2344H99.125L99.1406 3.92188ZM118.984 3.92188H131.703V8.1875H125.234V15.2187H130.172V19.5625H125.25V28.0156H131.781V32.25H118.984V3.92188ZM134.625 3.92188H139.031L144.828 17.5625V3.92188H150V32.2344H145.766L139.969 17.5469V32.2344H134.625V3.92188Z" fill="black"/>
</g>
<defs>
<clipPath id="clip0">
<rect width="150" height="34.25" fill="white"/>
</clipPath>
</defs>
</svg>
