<svg width="289" height="67" viewBox="0 0 289 67" fill="none" xmlns="http://www.w3.org/2000/svg">
<g clip-path="url(#clip0)">
<path d="M150.4 66.5598C168.55 66.5598 183.28 51.8298 183.28 33.6798C183.28 15.5298 168.55 0.799805 150.4 0.799805C132.25 0.799805 117.521 15.5298 117.521 33.6798C117.521 51.8298 132.25 66.5598 150.4 66.5598Z" fill="white"/>
<path d="M170.32 33.8301V34.4001C170.32 45.3801 161.38 54.2901 150.43 54.2901C139.45 54.2901 130.54 45.3501 130.54 34.4001V33.8301H125.5V34.4001C125.5 48.1701 136.69 59.3301 150.43 59.3301C164.17 59.3301 175.36 48.1401 175.36 34.4001V33.8301H170.32Z" fill="#00FF00"/>
<path d="M141.52 15.5C138.85 15.5 136.78 20 136.78 25.76C136.78 31.52 138.85 36.02 141.52 36.02C144.19 36.02 146.23 31.49 146.23 25.76C146.23 20 144.16 15.5 141.52 15.5Z" fill="#00FF00"/>
<path d="M159.28 15.5C156.61 15.5 154.54 20 154.54 25.76C154.54 31.52 156.61 36.02 159.28 36.02C161.95 36.02 164.02 31.52 164.02 25.76C164.02 20 161.95 15.5 159.28 15.5Z" fill="#00FF00"/>
<path d="M8.47016 17.2701H0.160156V8.33008H28.8102V17.2701H20.5602V62.7201H8.47016V17.2701ZM33.6102 8.33008H45.6102V62.6901H33.6102V8.33008ZM53.7102 8.33008H65.7102V30.5601L74.8302 8.33008H86.5902L76.5102 32.9001L87.0402 62.6901H74.8302L66.9702 38.6601L65.6802 40.8201V62.6901H53.6802L53.7102 8.33008ZM96.7602 17.2701H88.4502V8.33008H117.1V17.2701H108.85V62.7201H96.7602V17.2701ZM190.51 8.33008H202.51V30.5601L211.63 8.33008H223.39L213.31 32.9001L223.84 62.6901H211.63L203.77 38.6601L202.48 40.8201V62.6901H190.48L190.51 8.33008ZM228.61 8.33008H253.03V16.5201H240.61V30.0201H250.09V38.3601H240.64V54.5901H253.18V62.7201H228.61V8.33008ZM258.64 8.33008H267.1L278.23 34.5201V8.33008H288.16V62.6901H280.03L268.9 34.4901V62.6901H258.64V8.33008Z" fill="white"/>
</g>
<defs>
<clipPath id="clip0">
<rect width="288" height="65.76" fill="white" transform="translate(0.160156 0.799805)"/>
</clipPath>
</defs>
</svg>
