<svg width="86" height="86" viewBox="0 0 86 86" fill="none" xmlns="http://www.w3.org/2000/svg">
<g filter="url(#filter0_b)">
<circle cx="42.9315" cy="42.5106" r="42.5106" fill="black" fill-opacity="0.5"/>
</g>
<path d="M26 34.8894C26 33.8459 26.8459 33 27.8894 33H58.1191C59.1626 33 60.0085 33.8459 60.0085 34.8894C60.0085 35.9328 59.1626 36.7787 58.1191 36.7787H27.8894C26.8459 36.7787 26 35.9328 26 34.8894ZM26 44.3362C26 43.2927 26.8459 42.4468 27.8894 42.4468H58.1191C59.1626 42.4468 60.0085 43.2927 60.0085 44.3362C60.0085 45.3796 59.1626 46.2255 58.1191 46.2255H27.8894C26.8459 46.2255 26 45.3796 26 44.3362ZM26 53.783C26 52.7395 26.8459 51.8936 27.8894 51.8936H58.1191C59.1626 51.8936 60.0085 52.7395 60.0085 53.783C60.0085 54.8264 59.1626 55.6723 58.1191 55.6723H27.8894C26.8459 55.6723 26 54.8264 26 53.783Z" fill="white"/>
<defs>
<filter id="filter0_b" x="-12.5791" y="-13" width="111.021" height="111.021" filterUnits="userSpaceOnUse" color-interpolation-filters="sRGB">
<feFlood flood-opacity="0" result="BackgroundImageFix"/>
<feGaussianBlur in="BackgroundImage" stdDeviation="6.5"/>
<feComposite in2="SourceAlpha" operator="in" result="effect1_backgroundBlur"/>
<feBlend mode="normal" in="SourceGraphic" in2="effect1_backgroundBlur" result="shape"/>
</filter>
</defs>
</svg>
