<svg width="208" height="201" viewBox="0 0 208 201" fill="none" xmlns="http://www.w3.org/2000/svg">
<path d="M128.638 85.1468L194.01 100.02L132.381 126.413L138.435 193.161L94.3027 142.717L32.6904 169.102L67.0273 111.543L22.8831 61.0853L88.2547 75.9587L122.345 19.4674L128.638 85.1468Z" fill="black"/>
<path d="M49.5418 74.8153L91.8833 84.4489L114.129 47.1591L117.224 41.9716L117.77 47.9876L121.693 91.2312L169.932 102.206L164.369 104.589L124.455 121.681L128.377 164.927L128.922 170.946L124.945 166.4L96.351 133.716L56.431 150.813L50.8781 153.19L53.9741 148L76.2199 110.707L47.629 78.028L43.6451 73.4736L49.5418 74.8153ZM116.83 81.0881L116.529 77.772L102.361 74.5487L100.656 77.4081L116.83 81.0881ZM116.147 73.5508L114.406 54.3593L104.533 70.9085L116.147 73.5508Z" fill="#FF000A"/>
<path fill-rule="evenodd" clip-rule="evenodd" d="M78.0914 128.672C79.0679 129.7 80.6096 132.673 79.6414 134.269C78.6731 135.864 72.5624 137.903 71.3244 138.024C70.086 138.146 69.3372 138.782 69.1269 137.928C68.9167 137.074 73.2694 133.022 74.856 131.364C76.4431 129.709 78.0914 128.672 78.0914 128.672ZM114.529 136.962C113.202 137.466 110.526 139.48 110.709 141.337C110.891 143.195 115.519 147.676 116.583 148.321C117.647 148.967 118.046 149.864 118.605 149.185C119.164 148.506 116.995 142.97 116.278 140.789C115.565 138.61 114.529 136.962 114.529 136.962ZM96.7897 130.706L95.6383 130.446C94.4874 130.184 94.9241 128.265 93.4773 127.534C92.0303 126.8 90.0168 128.561 90.0168 128.561C90.0168 128.561 88.4122 129.406 86.1114 128.882C83.8105 128.359 83.4084 127.461 81.8842 125.298C80.3584 123.137 81.6493 121.01 82.8084 119.458C83.9681 117.908 86.9418 116.365 88.8245 115.18C90.7073 113.994 91.7199 112.208 91.3018 110.499C90.8836 108.79 88.3369 110.229 88.3369 110.229C88.3369 110.229 82.5216 112.738 81.1534 113.435C79.7845 114.132 78.6072 114.872 77.7191 113.46C76.9336 112.209 78.9615 111.348 79.8887 110.865C81.2501 110.157 83.6756 109.214 83.0496 107.059C82.5759 105.428 80.4338 105.444 79.072 105.754C78.5271 105.876 78.0596 106.094 77.6372 106.362L54.5674 79.9926L74.763 84.5875C74.6911 84.8046 74.6609 84.9913 74.6841 85.1369C74.8497 86.1823 74.9979 86.4177 84.0886 89.8983C93.1804 93.3791 94.9405 95.3926 96.9876 99.6916C99.0349 103.99 96.5236 111.485 95.5279 114.083C94.5323 116.681 87.7948 120.592 87.0421 121.231C86.2219 121.928 86.0976 122.903 86.8661 123.661C87.8239 124.605 88.5822 123.708 89.6244 123.529C91.2288 123.252 92.6767 123.707 94.1066 124.399C94.5041 124.592 97.8695 125.96 97.7489 126.49C97.8697 125.959 101.496 126.182 101.936 126.181C103.525 126.177 105.028 126.392 106.354 127.335C107.217 127.947 107.512 129.085 108.783 128.648C109.805 128.297 110.114 127.364 109.675 126.381C109.274 125.479 104.891 119.038 105.118 116.265C105.345 113.492 106.323 105.648 110.027 102.658C113.734 99.6685 116.192 98.6147 125.894 99.4098C135.595 100.205 135.832 100.057 136.433 99.1861C136.517 99.0649 136.57 98.8834 136.6 98.6567L156.795 103.251L124.587 117.045C124.314 116.598 123.965 116.203 123.556 115.876C122.462 115.008 120.538 114.065 119.404 115.332C117.907 117.004 119.685 118.902 120.608 120.13C121.236 120.967 122.69 122.62 121.442 123.409C120.027 124.297 119.288 123.12 118.355 121.9C117.422 120.68 113.265 115.901 113.265 115.901C113.265 115.901 111.592 113.502 110.477 114.863C109.359 116.222 109.5 118.271 110.685 120.154C111.868 122.038 113.882 124.714 114.258 126.614C114.631 128.515 114.874 130.991 112.564 132.279C110.254 133.57 109.503 134.206 107.203 133.682C104.902 133.159 103.821 131.702 103.821 131.702C103.821 131.702 102.766 129.244 101.146 129.28C99.5244 129.313 99.0879 131.232 97.937 130.97L96.7897 130.706Z" fill="black"/>
<path fill-rule="evenodd" clip-rule="evenodd" d="M78.7652 103.545C79.3567 104.488 82.7399 104.989 84.4593 105.111C86.1799 105.232 88.6729 104.321 88.6782 103.114C88.6854 101.903 86.9145 100.829 86.198 101.606C85.483 102.385 85.3667 102.896 83.2751 103.226C81.1821 103.558 81.1476 101.936 81.1476 101.936C79.0211 100.647 78.1724 102.603 78.7652 103.545ZM123.338 111.536C123.338 111.536 122.604 112.983 120.863 111.779C119.12 110.576 119.236 110.065 118.929 109.053C118.621 108.043 116.559 108.245 116.039 109.339C115.523 110.43 117.377 112.33 118.979 112.965C120.583 113.6 123.849 114.611 124.79 114.017C125.733 113.424 125.813 111.293 123.338 111.536Z" fill="white"/>
</svg>
