<svg width="203" height="163" viewBox="0 0 203 163" fill="none" xmlns="http://www.w3.org/2000/svg">
<path fill-rule="evenodd" clip-rule="evenodd" d="M116.038 30.6482L161.878 0L147.041 55.1383L203 66.0407L146.945 98.09L146.216 98.5139L159.209 138.427L121.427 125.416L102.694 162.314L85.0076 125.66L24.937 158.029L52.6492 97.6223L0 75.0678L51.4965 59.3335L30.7275 15.11L83.6022 36.5535L101.256 3.62925L116.038 30.6482Z" fill="#FF00D6"/>
<path d="M134.417 94.1007L142.03 89.6615L175.368 70.5989L137.83 63.2872L134.942 62.7649L135.73 59.6313L145.705 22.5506L113.679 43.9634L112.629 44.7468L101.341 24.1173L88.7409 47.6192L88.2159 48.9249L84.2782 47.3581L50.1523 33.5181L65.1152 65.3762L28.3643 76.6049L64.3277 92.0117L65.6403 92.5339L63.8027 96.7121L45.9522 135.621L83.7532 115.252L89.2659 112.119L90.3159 114.208L102.916 140.321L116.042 114.469L116.567 113.425L143.867 122.825L134.942 95.4064L134.417 94.1007ZM118.929 106.635L113.154 104.546L109.741 111.335L103.179 124.131L96.8786 111.074L92.6785 102.196L80.3406 108.724L61.4401 118.908L70.3654 99.3234L75.353 88.617L67.2153 84.9611L49.3648 77.1272L68.0028 71.3823L75.353 69.0321L72.4654 62.7649L64.5902 46.0524L81.6532 53.103L91.6284 57.2811L95.3035 50.4917L101.604 38.7407L107.904 50.4917L110.004 54.4087L117.617 49.186L133.63 38.4796L128.642 57.02L125.754 67.7264L136.255 69.8155L155.155 73.4713L138.617 83.1332L125.754 90.4449L128.117 97.2343L132.58 111.074L118.929 106.635Z" fill="black"/>
<path d="M116.813 87.6387L134.535 77.3001L116.548 73.9403L121.309 56.1093L107.025 65.6711L100.94 54.8167L94.0641 67.2226L77.9288 60.7597L84.542 74.1992L69.2002 78.8517L84.0116 85.3125L76.0766 102.369L95.1228 92.2912L102.793 108.055L109.141 95.651L120.78 99.7856L116.813 87.6387Z" fill="black"/>
</svg>
