<svg width="1775" height="1101" viewBox="0 0 1775 1101" fill="none" xmlns="http://www.w3.org/2000/svg">
<path fill-rule="evenodd" clip-rule="evenodd" d="M1775 239.501C1775 192.832 1737.17 155 1690.5 155C1643.83 155 1606 192.832 1606 239.501C1606 286.169 1643.83 324 1690.5 324C1737.17 324 1775 286.169 1775 239.501Z" fill="#FF9D22"/>
<path fill-rule="evenodd" clip-rule="evenodd" d="M1733.1 190.49C1740.55 190.489 1746.62 196.011 1751.33 201.189C1754.32 204.481 1755.81 208.688 1753.8 212.841C1752.98 214.54 1751.87 216.155 1750.54 217.496C1749.85 218.192 1749.06 218.796 1748.26 219.367C1747.13 220.181 1742.91 223.338 1741.34 222.441C1739.66 221.474 1741.3 218.889 1742.01 217.817C1744.37 214.287 1745.83 211.176 1742.68 207.4C1740.99 205.378 1734.39 199.817 1732.65 204.311C1732.14 205.649 1733.25 207.511 1731.99 208.342C1730.67 209.212 1728.69 208.898 1727.43 208.138C1723.96 206.038 1721.52 200.629 1723.1 196.896C1724.94 192.554 1728.44 190.49 1733.1 190.49ZM1686.51 250.055C1686.51 250.055 1692.93 243.399 1696.15 247.717C1699.37 252.035 1694.55 256.47 1694.65 256.622C1695.1 257.285 1698.11 273.515 1692.05 274.897C1685.99 276.281 1683.75 261.748 1683.41 261.648C1679.55 261.575 1675.79 259.305 1675.36 255.683C1674.29 246.664 1686.51 250.055 1686.51 250.055ZM1702.03 233.222C1700.49 234.87 1701.04 236.821 1698.41 237.36C1697.19 237.609 1695.14 237.546 1694.37 236.316C1693.51 234.954 1694.39 232.826 1695.08 231.683C1696.64 229.117 1696.96 229.455 1693.94 228.086C1692.39 227.386 1689.88 226.194 1689.12 224.688C1687.97 222.414 1690.22 220.932 1692.22 220.783C1693.79 220.666 1694.97 221.319 1696.24 222.126C1697.64 223.007 1699.23 224.289 1699.23 224.289C1699.23 224.289 1699.91 222.619 1700.22 222.106C1701.22 220.476 1701.02 219.635 1703.38 219.27C1704.98 219.023 1706.83 219.682 1707.18 221.434C1707.5 223.047 1706.22 224.913 1705.53 226.268C1704.37 228.532 1704.24 227.793 1707.15 229.465C1709.08 230.574 1716.96 233.999 1713.12 237.035C1709.81 239.645 1704.63 234.969 1702.03 233.222ZM1668.19 241.19C1659.58 241.19 1659.92 232.505 1667.48 231.158C1671.2 230.497 1676.08 232.923 1675.18 237.152C1674.67 239.582 1671.38 241.19 1668.19 241.19ZM1648.68 213.497C1647.39 215.355 1646.25 215.326 1644.5 216.451C1642.03 218.035 1640.2 221.217 1639.17 224.073C1638.59 225.658 1637.6 228.033 1638.74 229.537C1638.84 229.664 1642.96 232.745 1641.44 236.609C1639.52 241.456 1633.57 238.82 1632.7 238.481C1629.63 237.287 1627.75 235.519 1626.78 232.327C1623.91 222.935 1633.88 205.271 1644.4 205.708C1649 205.899 1651.66 209.198 1648.68 213.497Z" fill="black"/>
<path fill-rule="evenodd" clip-rule="evenodd" d="M1735.1 255.255C1729.37 274.65 1710.63 289.121 1690.62 290.089C1677.45 290.727 1663.95 288.719 1652.7 281.339C1647.59 277.982 1643.66 274.096 1640.3 268.916C1637.83 265.112 1633.71 257.577 1634.96 243.624C1635.7 235.414 1638.48 229.609 1638.99 228.643C1639.77 227.189 1641.48 224.498 1642.33 223.545C1644.46 221.16 1650.11 216.642 1653.68 218.571C1659.37 221.644 1651.36 227.78 1649.42 230.565C1646.46 234.793 1645.15 240.434 1644.63 245.518C1643.45 256.88 1647.27 267.741 1657.04 274.018C1672.01 283.637 1693.13 284.089 1708.42 275.071C1724.05 265.858 1732.93 241.512 1726.21 224.417C1722.2 214.218 1712.13 208.42 1701.65 207.18C1696.64 206.586 1691.25 207.135 1686.37 208.256C1682.2 209.213 1676.25 212.943 1672.16 212.938C1665.77 212.933 1673.78 205.397 1676.05 203.903C1679.89 201.376 1683.81 199.979 1688.3 199.429C1699.04 198.112 1709.96 199.333 1719.61 204.602C1738.63 214.992 1740.7 236.28 1735.1 255.255Z" fill="black"/>
<path fill-rule="evenodd" clip-rule="evenodd" d="M126.46 422.869L119.912 438.695L136.752 435.569L142.899 468.662L121.062 472.717L133.649 491.016L108.669 508.198L108.851 508.611C113.623 519.638 114.285 532.421 109.964 544.449L109.669 545.249L109.415 545.905L109.147 546.565C98.9192 571.285 70.7236 583.132 46.1437 572.961C21.5639 562.791 9.98172 534.486 20.2099 509.766C25.3591 497.321 35.1404 488.039 46.8009 483.287L47.6547 482.947L42.1199 453.146L63.9564 449.087L51.3695 430.791L79.1018 411.715L88.8088 425.824L95.3586 410.001L126.46 422.869Z" fill="#D20000"/>
<path d="M112.743 428.557L102.816 452.549L128.346 447.809L130.657 460.256L103.248 465.347L119.047 488.316L108.617 495.49L93.9008 474.096L84.8438 495.987C99.9277 505.48 106.485 524.746 99.6803 541.969L99.4449 542.551C91.4255 561.932 69.359 571.204 50.158 563.259C30.957 555.314 21.8925 533.162 29.9119 513.781C37.0987 496.411 55.5672 487.162 73.1445 491.147L82.2014 469.255L56.6728 473.998L54.361 461.551L81.7696 456.458L65.9712 433.491L76.4015 426.317L91.1169 447.708L101.046 423.717L112.743 428.557ZM74.3587 504.77C61.558 499.474 46.847 505.655 41.5008 518.576C36.1545 531.497 42.1975 546.265 54.9981 551.561C67.7988 556.858 82.5098 550.677 87.8561 537.756C93.2023 524.835 87.1593 510.067 74.3587 504.77Z" fill="black"/>
<path fill-rule="evenodd" clip-rule="evenodd" d="M427.979 381.517L478.443 366.946L486.275 394.067L517.254 385.122L531.488 434.416L500.509 443.362L520.077 511.127L469.613 525.699L450.045 457.933L419.066 466.879L404.832 417.585L435.811 408.639L427.979 381.517Z" fill="#FA00FF"/>
<path d="M479.345 406.622L471.514 379.501L440.534 388.446L448.366 415.568L417.386 424.513L425.994 454.324L456.974 445.378L476.542 513.144L507.521 504.198L487.953 436.433L518.933 427.487L510.325 397.677L479.345 406.622ZM508.889 421.944L477.909 430.89L497.477 498.655L482.085 503.099L462.517 435.334L431.537 444.28L427.43 430.057L458.41 421.111L450.578 393.989L465.971 389.545L473.802 416.666L504.782 407.721L508.889 421.944Z" fill="black"/>
<path fill-rule="evenodd" clip-rule="evenodd" d="M1615.91 976L1615.91 988.625L1626.5 981.75L1640.02 1002.56L1626.29 1011.47L1640.02 1020.39L1627.84 1039.14L1628.08 1039.36C1634.44 1045.53 1638.5 1054.05 1638.94 1063.46L1638.97 1064.09L1638.98 1064.61L1638.98 1065.13C1638.98 1084.85 1623.12 1100.87 1603.51 1100.87C1583.9 1100.87 1568.03 1084.85 1568.03 1065.13C1568.03 1055.21 1572.08 1046.13 1578.68 1039.6L1579.17 1039.13L1567 1020.39L1580.73 1011.47L1567 1002.56L1580.51 981.75L1591.1 988.624L1591.1 976H1615.91Z" fill="#FF8E00"/>
<path d="M1608.17 983.74L1608.17 1002.88L1624.23 992.456L1629.31 1000.28L1612.08 1011.47L1629.31 1022.67L1624.23 1030.49L1608.17 1020.07L1608.17 1037.53C1621.12 1039.75 1631.02 1051.02 1631.24 1064.67L1631.24 1065.13C1631.24 1080.6 1618.83 1093.13 1603.51 1093.13C1588.19 1093.13 1575.77 1080.6 1575.77 1065.13C1575.77 1051.28 1585.75 1039.77 1598.84 1037.53L1598.84 1020.07L1582.79 1030.49L1577.71 1022.67L1594.94 1011.47L1577.71 1000.28L1582.79 992.456L1598.84 1002.88L1598.84 983.74H1608.17ZM1603.51 1046.47C1593.3 1046.47 1585.02 1054.83 1585.02 1065.13C1585.02 1075.44 1593.3 1083.8 1603.51 1083.8C1613.72 1083.8 1622 1075.44 1622 1065.13C1622 1054.83 1613.72 1046.47 1603.51 1046.47Z" fill="black"/>
<path fill-rule="evenodd" clip-rule="evenodd" d="M363.805 671.701L359.752 683.244L371.641 680.358L377.316 703.72L361.9 707.465L371.592 720.025L354.446 733.254L354.592 733.541C358.426 741.22 359.397 750.311 356.785 759.058L356.605 759.64L356.45 760.118L356.285 760.599C349.955 778.629 330.307 788.179 312.38 781.885C294.452 775.59 285.086 755.855 291.417 737.825C294.603 728.748 301.217 721.746 309.348 717.901L309.944 717.626L304.833 696.587L320.249 692.84L310.558 680.282L329.592 665.595L337.066 675.278L341.12 663.737L363.805 671.701Z" fill="#D20073"/>
<path d="M354.244 676.293L348.1 693.792L366.123 689.416L368.258 698.203L348.907 702.903L361.072 718.668L353.913 724.193L342.582 709.508L336.977 725.475C348.106 731.656 353.534 745.141 349.353 757.691L349.208 758.115C344.245 772.251 328.869 779.725 314.864 774.808C300.859 769.891 293.53 754.446 298.493 740.309C302.941 727.641 315.752 720.323 328.444 722.479L334.049 706.512L316.027 710.891L313.892 702.104L333.242 697.402L321.077 681.638L328.237 676.114L339.567 690.796L345.712 673.298L354.244 676.293ZM329.842 732.148C320.505 728.87 310.254 733.853 306.946 743.277C303.637 752.701 308.523 762.998 317.86 766.276C327.196 769.554 337.447 764.572 340.756 755.147C344.064 745.723 339.178 735.426 329.842 732.148Z" fill="black"/>
<path fill-rule="evenodd" clip-rule="evenodd" d="M451.571 889.368L459.621 904.485L467.917 889.501L497.366 905.801L486.609 925.233L508.736 927.155L506.111 957.36L506.545 957.482C518.091 960.811 528.377 968.429 534.912 979.412L535.342 980.149L535.686 980.762L536.026 981.389C548.6 1005 539.813 1034.3 516.333 1046.8C492.854 1059.3 463.643 1050.24 451.07 1026.63C444.74 1014.74 443.796 1001.29 447.543 989.266L447.824 988.391L421.305 973.712L432.058 954.278L409.934 952.358L412.847 918.825L429.908 920.305L421.862 905.188L451.571 889.368Z" fill="#4D3BFF"/>
<path d="M447.238 903.571L459.441 926.489L472.018 903.772L483.094 909.903L469.593 934.294L497.366 936.707L496.271 949.319L470.401 947.072L481.537 967.982C498.455 962.377 517.493 969.568 526.458 985.772L526.758 986.324C536.616 1004.84 529.739 1027.76 511.398 1037.53C493.056 1047.3 470.196 1040.21 460.337 1021.69C451.502 1005.1 456.108 984.965 470.361 973.933L459.225 953.022L446.652 975.74L435.576 969.609L449.074 945.218L421.303 942.806L422.399 930.194L448.266 932.44L436.064 909.521L447.238 903.571ZM481.647 981.659C469.42 988.17 464.835 1003.45 471.407 1015.8C477.98 1028.14 493.22 1032.87 505.448 1026.36C517.675 1019.84 522.26 1004.56 515.688 992.218C509.115 979.876 493.875 975.148 481.647 981.659Z" fill="black"/>
<path fill-rule="evenodd" clip-rule="evenodd" d="M780.038 129.648L825.878 99L811.041 154.138L867 165.041L810.945 197.09L810.216 197.514L823.209 237.427L785.427 224.416L766.694 261.314L749.008 224.66L688.937 257.029L716.649 196.622L664 174.068L715.497 158.333L694.728 114.11L747.602 135.554L765.256 102.629L780.038 129.648Z" fill="#FF00D6"/>
<path d="M798.417 193.101L806.03 188.661L839.368 169.599L801.83 162.287L798.942 161.765L799.73 158.631L809.705 121.551L777.679 142.963L776.629 143.747L765.341 123.117L752.741 146.619L752.216 147.925L748.278 146.358L714.152 132.518L729.115 164.376L692.364 175.605L728.328 191.012L729.64 191.534L727.803 195.712L709.952 234.621L747.753 214.252L753.266 211.119L754.316 213.208L766.916 239.321L780.042 213.469L780.567 212.425L807.867 221.825L798.942 194.406L798.417 193.101ZM782.929 205.635L777.154 203.546L773.741 210.335L767.179 223.131L760.879 210.074L756.678 201.196L744.341 207.724L725.44 217.908L734.365 198.323L739.353 187.617L731.215 183.961L713.365 176.127L732.003 170.382L739.353 168.032L736.465 161.765L728.59 145.052L745.653 152.103L755.628 156.281L759.304 149.492L765.604 137.741L771.904 149.492L774.004 153.409L781.617 148.186L797.63 137.48L792.642 156.02L789.754 166.726L800.255 168.815L819.155 172.471L802.617 182.133L789.754 189.445L792.117 196.234L796.58 210.074L782.929 205.635Z" fill="black"/>
<path d="M780.813 186.639L798.535 176.3L780.548 172.94L785.309 155.109L771.025 164.671L764.94 153.817L758.064 166.223L741.929 159.76L748.542 173.199L733.2 177.852L748.012 184.312L740.077 201.369L759.123 191.291L766.793 207.055L773.141 194.651L784.78 198.786L780.813 186.639Z" fill="black"/>
<path d="M1602 680.994L1619.64 747.647L1632.46 744.254L1648.19 803.712L1751 776.501L1735.26 717.045L1748.08 713.654L1730.44 647L1602 680.994Z" fill="#FA00FF"/>
<path d="M1626.45 736.867C1623.05 734.673 1620.44 730.577 1618.6 724.576L1628.16 720.235C1629.21 723.827 1630.42 726.36 1631.79 727.835C1633.16 729.309 1634.76 729.803 1636.6 729.317C1637.96 728.956 1638.83 728.26 1639.21 727.228C1639.59 726.196 1639.6 724.999 1639.24 723.638C1638.64 721.382 1637.62 719.598 1636.2 718.288C1634.78 716.978 1632.74 715.671 1630.07 714.367L1622.79 710.795C1619.92 709.441 1617.56 707.802 1615.72 705.878C1613.88 703.955 1612.54 701.418 1611.71 698.268C1610.48 693.618 1610.91 689.671 1612.99 686.427C1615.08 683.182 1618.54 680.921 1623.37 679.642C1628.54 678.275 1632.52 678.815 1635.33 681.264C1638.13 683.713 1640.29 687.202 1641.8 691.731L1632.12 695.881C1631.23 692.901 1630.3 690.77 1629.34 689.489C1628.37 688.207 1627.02 687.799 1625.28 688.263C1624 688.602 1623.15 689.349 1622.71 690.506C1622.26 691.691 1622.21 692.987 1622.55 694.204C1623.05 696.083 1623.88 697.56 1625.05 698.636C1626.21 699.711 1627.89 700.787 1630.09 701.864L1637.21 705.398C1640.57 707.072 1643.38 709.032 1645.63 711.278C1647.88 713.524 1649.48 716.431 1650.43 720.001C1651.15 722.726 1651.18 725.32 1650.53 727.78C1649.88 730.235 1648.55 732.457 1646.69 734.191C1644.77 736.005 1642.36 737.296 1639.46 738.065C1634.18 739.459 1629.85 739.06 1626.45 736.867Z" fill="black"/>
<path d="M1649.4 673.512L1662.3 670.098L1688.41 724.276L1677.7 727.11L1672.26 715.127L1663.23 717.514L1664.36 730.637L1653.44 733.53L1649.4 673.512ZM1669.23 708.236L1659.69 686.172L1662.4 710.044L1669.23 708.236Z" fill="black"/>
<path d="M1675.37 666.639L1699.47 660.258L1701.58 668.223L1689.03 671.553L1693.09 686.919L1703.73 684.101L1705.87 692.205L1695.25 695.019L1702.04 720.673L1690.48 723.733L1675.37 666.639Z" fill="black"/>
<path d="M1701.94 659.606L1726.82 653.022L1728.94 661.057L1715.63 664.581L1719.64 679.735L1729.93 677.011L1732.08 685.118L1721.79 687.842L1726.53 705.743L1739.99 702.18L1742.08 710.077L1717.05 716.695L1701.94 659.606Z" fill="black"/>
<path d="M1655.03 793.031C1651.63 790.838 1649.01 786.742 1647.18 780.743L1656.74 776.402C1657.79 779.995 1659 782.528 1660.37 784.001C1661.74 785.473 1663.34 785.967 1665.18 785.481C1666.54 785.123 1667.41 784.427 1667.79 783.394C1668.17 782.361 1668.18 781.164 1667.82 779.804C1667.22 777.548 1666.21 775.767 1664.79 774.461C1663.36 773.156 1661.32 771.848 1658.65 770.537L1651.37 766.961C1648.5 765.607 1646.14 763.969 1644.3 762.045C1642.46 760.121 1641.12 757.583 1640.29 754.432C1639.06 749.779 1639.49 745.832 1641.57 742.591C1643.66 739.349 1647.12 737.088 1651.95 735.808C1657.12 734.441 1661.11 734.982 1663.91 737.431C1666.71 739.879 1668.87 743.369 1670.38 747.9L1660.69 752.047C1659.79 749.067 1658.87 746.937 1657.9 745.657C1656.94 744.377 1655.58 743.968 1653.84 744.43C1652.57 744.767 1651.71 745.51 1651.26 746.659C1650.81 747.842 1650.76 749.14 1651.1 750.357C1651.6 752.239 1652.43 753.716 1653.6 754.788C1654.76 755.861 1656.44 756.937 1658.64 758.017L1665.79 761.564C1669.14 763.238 1671.94 765.199 1674.2 767.446C1676.45 769.694 1678.05 772.601 1679 776.167C1679.72 778.896 1679.75 781.49 1679.1 783.949C1678.44 786.403 1677.11 788.624 1675.26 790.359C1673.35 792.164 1670.94 793.456 1668.03 794.233C1662.76 795.629 1658.42 795.228 1655.03 793.031Z" fill="black"/>
<path d="M1669.31 731.97L1694.19 725.386L1696.31 733.421L1683 736.946L1687.01 752.103L1697.3 749.38L1699.44 757.485L1689.15 760.204L1693.89 778.107L1707.35 774.545L1709.44 782.442L1684.42 789.066L1669.31 731.97Z" fill="black"/>
<path d="M1713.52 748.626L1695.65 724.996L1706.66 722.095L1717.79 736.797L1719.06 718.812L1728.93 716.199L1726.31 748.193L1745.02 773.038L1734.16 775.912L1721.92 759.838L1720.13 779.624L1710.34 782.216L1713.52 748.626Z" fill="black"/>
<path fill-rule="evenodd" clip-rule="evenodd" d="M1206.22 28.1142L1236.12 187.748L1081 131.504L1206.22 28.1142Z" fill="#00FFFF"/>
<path d="M1201.75 40.1261L1096.09 129.046L1225.61 176.008L1201.75 40.1261ZM1166.95 138.54C1178.11 142.587 1190.24 136.676 1194.2 125.744C1195.62 121.839 1195.81 118.079 1195.12 114.297C1203.17 123.694 1206.71 134.991 1206.71 134.991C1206.71 134.991 1184.74 149.409 1165.01 142.256C1145.29 135.104 1137.41 109.863 1137.41 109.863C1137.41 109.863 1148.26 102.607 1161.76 101.021C1158.55 103.392 1155.83 106.826 1154.23 111.251C1150.27 122.183 1155.79 134.493 1166.95 138.54ZM1161.52 109.771C1162.65 106.648 1165.84 105.152 1168.95 106.281C1172.07 107.411 1173.55 110.6 1172.42 113.724C1171.29 116.847 1168.1 118.343 1164.99 117.214C1161.88 116.084 1160.48 112.634 1161.52 109.771ZM1212.06 140.467L1216.48 164.745L1180.14 151.569C1194.13 151.047 1206.28 144.261 1212.06 140.467ZM1208.5 120.326C1203.43 110.829 1194.89 100.369 1181.65 95.5692C1168.41 90.7696 1155.15 93.3244 1145.17 97.3629L1196.75 53.9218L1208.5 120.326ZM1129.53 110.54C1131.63 116.897 1136.6 129.894 1147.18 139.617L1110.84 126.442L1129.53 110.54Z" fill="black"/>
<path d="M1325.64 969.147L1391.01 984.02L1329.38 1010.41L1335.43 1077.16L1291.3 1026.72L1229.69 1053.1L1264.03 995.543L1219.88 945.085L1285.25 959.959L1319.34 903.467L1325.64 969.147Z" fill="black"/>
<path d="M1246.54 958.815L1288.88 968.449L1311.13 931.159L1314.22 925.972L1314.77 931.988L1318.69 975.231L1366.93 986.206L1361.37 988.589L1321.45 1005.68L1325.38 1048.93L1325.92 1054.95L1321.94 1050.4L1293.35 1017.72L1253.43 1034.81L1247.88 1037.19L1250.97 1032L1273.22 994.707L1244.63 962.028L1240.65 957.474L1246.54 958.815ZM1313.83 965.088L1313.53 961.772L1299.36 958.549L1297.66 961.408L1313.83 965.088ZM1313.15 957.551L1311.41 938.359L1301.53 954.908L1313.15 957.551Z" fill="#FF000A"/>
<path fill-rule="evenodd" clip-rule="evenodd" d="M1275.09 1012.67C1276.07 1013.7 1277.61 1016.67 1276.64 1018.27C1275.67 1019.86 1269.56 1021.9 1268.32 1022.02C1267.09 1022.15 1266.34 1022.78 1266.13 1021.93C1265.92 1021.07 1270.27 1017.02 1271.86 1015.36C1273.44 1013.71 1275.09 1012.67 1275.09 1012.67ZM1311.53 1020.96C1310.2 1021.47 1307.53 1023.48 1307.71 1025.34C1307.89 1027.19 1312.52 1031.68 1313.58 1032.32C1314.65 1032.97 1315.05 1033.86 1315.6 1033.19C1316.16 1032.51 1313.99 1026.97 1313.28 1024.79C1312.56 1022.61 1311.53 1020.96 1311.53 1020.96ZM1293.79 1014.71L1292.64 1014.45C1291.49 1014.18 1291.92 1012.26 1290.48 1011.53C1289.03 1010.8 1287.02 1012.56 1287.02 1012.56C1287.02 1012.56 1285.41 1013.41 1283.11 1012.88C1280.81 1012.36 1280.41 1011.46 1278.88 1009.3C1277.36 1007.14 1278.65 1005.01 1279.81 1003.46C1280.97 1001.91 1283.94 1000.37 1285.82 999.18C1287.71 997.994 1288.72 996.208 1288.3 994.499C1287.88 992.79 1285.34 994.229 1285.34 994.229C1285.34 994.229 1279.52 996.738 1278.15 997.435C1276.78 998.132 1275.61 998.872 1274.72 997.46C1273.93 996.209 1275.96 995.348 1276.89 994.865C1278.25 994.157 1280.68 993.214 1280.05 991.059C1279.58 989.428 1277.43 989.444 1276.07 989.754C1275.53 989.876 1275.06 990.094 1274.64 990.362L1251.57 963.993L1271.76 968.587C1271.69 968.805 1271.66 968.991 1271.68 969.137C1271.85 970.182 1272 970.418 1281.09 973.898C1290.18 977.379 1291.94 979.393 1293.99 983.692C1296.03 987.99 1293.52 995.485 1292.53 998.083C1291.53 1000.68 1284.79 1004.59 1284.04 1005.23C1283.22 1005.93 1283.1 1006.9 1283.87 1007.66C1284.82 1008.61 1285.58 1007.71 1286.62 1007.53C1288.23 1007.25 1289.68 1007.71 1291.11 1008.4C1291.5 1008.59 1294.87 1009.96 1294.75 1010.49C1294.87 1009.96 1298.5 1010.18 1298.94 1010.18C1300.53 1010.18 1302.03 1010.39 1303.35 1011.34C1304.22 1011.95 1304.51 1013.08 1305.78 1012.65C1306.81 1012.3 1307.11 1011.36 1306.67 1010.38C1306.27 1009.48 1301.89 1003.04 1302.12 1000.27C1302.35 997.492 1303.32 989.648 1307.03 986.658C1310.73 983.668 1313.19 982.615 1322.89 983.41C1332.6 984.205 1332.83 984.057 1333.43 983.186C1333.52 983.065 1333.57 982.883 1333.6 982.657L1353.79 987.251L1321.59 1001.04C1321.31 1000.6 1320.97 1000.2 1320.56 999.876C1319.46 999.008 1317.54 998.065 1316.4 999.332C1314.91 1001 1316.68 1002.9 1317.61 1004.13C1318.24 1004.97 1319.69 1006.62 1318.44 1007.41C1317.03 1008.3 1316.29 1007.12 1315.35 1005.9C1314.42 1004.68 1310.26 999.901 1310.26 999.901C1310.26 999.901 1308.59 997.502 1307.48 998.863C1306.36 1000.22 1306.5 1002.27 1307.68 1004.15C1308.87 1006.04 1310.88 1008.71 1311.26 1010.61C1311.63 1012.51 1311.87 1014.99 1309.56 1016.28C1307.25 1017.57 1306.5 1018.21 1304.2 1017.68C1301.9 1017.16 1300.82 1015.7 1300.82 1015.7C1300.82 1015.7 1299.77 1013.24 1298.15 1013.28C1296.52 1013.31 1296.09 1015.23 1294.94 1014.97L1293.79 1014.71Z" fill="black"/>
<path fill-rule="evenodd" clip-rule="evenodd" d="M1275.77 987.545C1276.36 988.488 1279.74 988.989 1281.46 989.111C1283.18 989.232 1285.67 988.321 1285.68 987.114C1285.69 985.903 1283.91 984.829 1283.2 985.606C1282.48 986.385 1282.37 986.896 1280.28 987.226C1278.18 987.558 1278.15 985.936 1278.15 985.936C1276.02 984.647 1275.17 986.603 1275.77 987.545ZM1320.34 995.536C1320.34 995.536 1319.6 996.983 1317.86 995.779C1316.12 994.576 1316.24 994.065 1315.93 993.053C1315.62 992.043 1313.56 992.245 1313.04 993.339C1312.52 994.43 1314.38 996.33 1315.98 996.965C1317.58 997.6 1320.85 998.611 1321.79 998.017C1322.73 997.424 1322.81 995.293 1320.34 995.536Z" fill="white"/>
<path d="M152.671 830.9L216.262 809.668L177.296 864.224L217.127 918.126L153.218 897.929L114.262 952.47L113.722 885.449L49.7953 865.247L113.387 844.015L113.19 778.036L152.671 830.9Z" fill="black"/>
<path d="M79.7084 863.139L120.897 849.387L120.547 805.968L120.499 799.927L124.089 804.785L149.895 839.706L196.82 824.039L193.304 828.963L168.065 864.295L193.872 899.218L197.463 904.079L191.704 902.259L150.296 889.173L125.056 924.512L121.545 929.427L121.496 923.384L121.145 879.961L79.7418 866.878L73.9723 865.054L79.7084 863.139ZM140.473 833.562L138.493 830.884L124.712 835.486L124.739 838.815L140.473 833.562ZM135.975 827.475L124.523 811.977L124.678 831.247L135.975 827.475Z" fill="#00FF00"/>
<path fill-rule="evenodd" clip-rule="evenodd" d="M132.07 894.343C133.439 894.715 136.3 896.455 136.301 898.322C136.302 900.188 132.138 905.103 131.143 905.849C130.148 906.597 129.838 907.529 129.215 906.908C128.592 906.288 130.208 900.564 130.703 898.324C131.2 896.085 132.07 894.343 132.07 894.343ZM167.516 882.509C166.644 883.629 165.402 886.739 166.523 888.231C167.643 889.724 173.925 891.151 175.169 891.15C176.414 891.15 177.221 891.709 177.346 890.839C177.471 889.969 172.743 886.363 170.998 884.871C169.257 883.379 167.516 882.509 167.516 882.509ZM149.107 886.373L147.988 886.748C146.868 887.122 146.245 885.255 144.629 885.382C143.011 885.506 142.205 888.056 142.205 888.056C142.205 888.056 141.272 889.612 139.034 890.359C136.796 891.106 135.986 890.548 133.56 889.49C131.134 888.436 131.133 885.947 131.318 884.019C131.504 882.093 133.244 879.23 134.238 877.239C135.231 875.248 135.169 873.196 133.925 871.953C132.68 870.709 131.251 873.261 131.251 873.261C131.251 873.261 127.583 878.425 126.776 879.732C125.968 881.037 125.346 882.282 123.854 881.536C122.533 880.874 123.819 879.086 124.361 878.191C125.156 876.879 126.74 874.814 125.086 873.298C123.834 872.149 122.012 873.276 121.009 874.248C120.607 874.635 120.32 875.064 120.098 875.512L86.6904 864.954L106.336 858.395C106.387 858.618 106.459 858.793 106.554 858.906C107.238 859.713 107.487 859.837 117.064 858.092C126.641 856.346 129.191 857.153 133.173 859.764C137.154 862.374 138.899 870.084 139.398 872.821C139.896 875.559 136.168 882.4 135.857 883.337C135.518 884.358 135.917 885.255 136.968 885.505C138.277 885.814 138.459 884.653 139.257 883.959C140.484 882.89 141.958 882.527 143.539 882.376C143.979 882.334 147.565 881.756 147.737 882.271C147.565 881.755 150.78 880.063 151.156 879.833C152.512 879.004 153.908 878.409 155.53 878.526C156.586 878.601 157.429 879.42 158.288 878.387C158.98 877.556 158.759 876.599 157.873 875.986C157.062 875.424 149.972 872.195 148.726 869.707C147.481 867.219 144.244 860.007 145.857 855.529C147.473 851.049 149.026 848.872 157.73 844.515C166.435 840.157 166.56 839.907 166.622 838.851C166.631 838.704 166.581 838.521 166.489 838.312L186.134 831.753L165.77 860.264C165.305 860.025 164.802 859.868 164.283 859.801C162.896 859.627 160.762 859.82 160.451 861.492C160.04 863.698 162.545 864.397 163.972 864.967C164.943 865.357 167.044 866.015 166.387 867.336C165.639 868.83 164.396 868.208 162.965 867.65C161.534 867.092 155.5 865.166 155.5 865.166C155.5 865.166 152.825 863.984 152.578 865.726C152.329 867.468 153.512 869.146 155.504 870.14C157.493 871.135 160.604 872.377 161.911 873.806C163.217 875.236 164.71 877.227 163.406 879.527C162.101 881.829 161.79 882.763 159.551 883.51C157.313 884.257 155.633 883.574 155.633 883.574C155.633 883.574 153.456 882.02 152.09 882.892C150.721 883.763 151.344 885.629 150.224 886.003L149.107 886.373Z" fill="black"/>
<path fill-rule="evenodd" clip-rule="evenodd" d="M119.6 872.519C120.595 873.017 123.747 871.689 125.28 870.9C126.813 870.111 128.471 868.038 127.849 867.003C127.226 865.965 125.155 865.966 124.946 867.002C124.739 868.039 124.905 868.537 123.289 869.905C121.673 871.275 120.801 869.907 120.801 869.907C118.314 869.909 118.605 872.022 119.6 872.519ZM161.843 856.204C161.843 856.204 161.967 857.822 159.854 857.697C157.74 857.574 157.574 857.077 156.786 856.372C155.998 855.668 154.34 856.912 154.465 858.117C154.59 859.318 157.161 859.978 158.86 859.689C160.56 859.399 163.876 858.567 164.372 857.571C164.87 856.575 163.832 854.712 161.843 856.204Z" fill="white"/>
<path fill-rule="evenodd" clip-rule="evenodd" d="M1406.41 369.862L1524.4 465.811L1379.53 519.52L1406.41 369.862Z" fill="#00FF00"/>
<path d="M1410.49 381.148L1388.83 508.63L1509.78 463.786L1410.49 381.148ZM1445.19 472.523C1455.62 468.659 1460.7 457.095 1456.92 446.885C1455.57 443.239 1453.43 440.438 1450.65 438.15C1462.08 439.994 1471.45 445.922 1471.45 445.922C1471.45 445.922 1464.48 469.519 1446.06 476.349C1427.64 483.179 1406.73 469.917 1406.73 469.917C1406.73 469.917 1410.09 458.163 1418.78 448.861C1417.92 452.497 1418.06 456.593 1419.59 460.725C1423.38 470.935 1434.77 476.388 1445.19 472.523ZM1423.9 455.255C1422.82 452.338 1424.19 449.341 1427.1 448.263C1430.01 447.184 1433 448.563 1434.08 451.481C1435.17 454.398 1433.8 457.394 1430.89 458.473C1427.98 459.551 1424.9 457.929 1423.9 455.255ZM1478.59 446.592L1496.44 461.266L1462.5 473.848C1472.18 465.005 1476.76 452.802 1478.59 446.592ZM1463.86 434.36C1454.48 430.646 1442.05 428.343 1429.69 432.926C1417.32 437.509 1409.4 447.361 1404.71 456.288L1415.27 394.032L1463.86 434.36ZM1401.51 475.171C1406.86 478.441 1418.28 484.713 1431.72 485.261L1397.79 497.843L1401.51 475.171Z" fill="black"/>
</svg>
