<svg width="203" height="188" viewBox="0 0 203 188" fill="none" xmlns="http://www.w3.org/2000/svg">
<path fill-rule="evenodd" clip-rule="evenodd" d="M125.219 28.1142L155.118 187.748L-0.000306252 131.504L125.219 28.1142Z" fill="#00FFFF"/>
<path d="M120.751 40.1261L15.0908 129.046L144.607 176.008L120.751 40.1261ZM85.9482 138.54C97.1089 142.587 109.237 136.676 113.201 125.744C114.617 121.839 114.805 118.079 114.121 114.297C122.167 123.694 125.707 134.991 125.707 134.991C125.707 134.991 103.739 149.409 84.0134 142.256C64.2875 135.104 56.4064 109.863 56.4064 109.863C56.4064 109.863 67.2603 102.607 80.757 101.021C77.548 103.392 74.8345 106.826 73.23 111.251C69.2661 122.183 74.7875 134.493 85.9482 138.54ZM80.5211 109.771C81.6536 106.648 84.839 105.152 87.9536 106.281C91.0682 107.411 92.5548 110.6 91.4222 113.724C90.2896 116.847 87.1043 118.343 83.9896 117.214C80.875 116.084 79.4829 112.634 80.5211 109.771ZM131.063 140.467L135.475 164.745L99.1381 151.569C113.13 151.047 125.282 144.261 131.063 140.467ZM127.5 120.326C122.427 110.829 113.885 100.369 100.648 95.5692C87.4109 90.7696 74.1502 93.3244 64.1693 97.3629L115.749 53.9218L127.5 120.326ZM48.5256 110.54C50.6256 116.897 55.6043 129.894 66.1751 139.617L29.838 126.442L48.5256 110.54Z" fill="black"/>
</svg>
