<svg width="157" height="195" viewBox="0 0 157 195" fill="none" xmlns="http://www.w3.org/2000/svg">
<path fill-rule="evenodd" clip-rule="evenodd" d="M126.46 25.8694L119.912 41.6952L136.752 38.5694L142.899 71.6623L121.062 75.7173L133.649 94.0165L108.669 111.198L108.851 111.611C113.623 122.638 114.285 135.421 109.964 147.449L109.669 148.249L109.415 148.905L109.147 149.565C98.9192 174.285 70.7236 186.132 46.1437 175.961C21.5639 165.791 9.98172 137.486 20.2099 112.766C25.3591 100.321 35.1404 91.0395 46.8009 86.2869L47.6547 85.947L42.1199 56.1456L63.9564 52.0872L51.3695 33.7909L79.1018 14.7154L88.8088 28.8238L95.3586 13.0006L126.46 25.8694Z" fill="#D20000"/>
<path d="M112.743 31.5572L102.816 55.549L128.346 50.8095L130.657 63.2562L103.248 68.3467L119.047 91.3159L108.617 98.4904L93.9008 77.0962L84.8438 98.9874C99.9277 108.48 106.485 127.746 99.6803 144.969L99.4449 145.551C91.4255 164.932 69.359 174.204 50.158 166.259C30.957 158.314 21.8925 136.162 29.9119 116.781C37.0987 99.4113 55.5672 90.1619 73.1445 94.1467L82.2014 72.2554L56.6728 76.9977L54.361 64.551L81.7696 59.4577L65.9712 36.4912L76.4015 29.3167L91.1169 50.7083L101.046 26.717L112.743 31.5572ZM74.3587 107.77C61.558 102.474 46.847 108.655 41.5008 121.576C36.1545 134.497 42.1975 149.265 54.9981 154.561C67.7988 159.858 82.5098 153.677 87.8561 140.756C93.2023 127.835 87.1593 113.067 74.3587 107.77Z" fill="black"/>
</svg>
