<svg width="168" height="197" viewBox="0 0 168 197" fill="none" xmlns="http://www.w3.org/2000/svg">
<path fill-rule="evenodd" clip-rule="evenodd" d="M58.5711 15.368L66.6208 30.4854L74.9172 15.5011L104.366 31.8015L93.609 51.233L115.736 53.155L113.111 83.3601L113.545 83.4819C125.091 86.8111 135.377 94.4287 141.912 105.412L142.342 106.149L142.686 106.762L143.026 107.389C155.6 131.002 146.813 160.296 123.333 172.798C99.8535 185.301 70.6433 176.24 58.0696 152.627C51.7396 140.739 50.7962 127.288 54.5433 115.266L54.824 114.391L28.3046 99.7118L39.0584 80.2784L16.9339 78.3578L19.8472 44.8247L36.9084 46.3048L28.8616 31.1878L58.5711 15.368Z" fill="#4D3BFF"/>
<path d="M54.2377 29.571L66.4412 52.489L79.0177 29.7723L90.0937 35.9031L76.5926 60.2938L104.366 62.7068L103.271 75.3189L77.4011 73.0716L88.5366 93.9823C105.455 88.3775 124.493 95.568 133.458 111.772L133.758 112.324C143.616 130.838 136.739 153.764 118.398 163.53C100.056 173.297 77.1956 166.206 67.3372 147.692C58.5024 131.1 63.1082 110.965 77.3611 99.9331L66.2255 79.0224L53.6515 101.74L42.5755 95.6095L56.074 71.2176L28.3029 68.8057L29.3987 56.1937L55.2655 58.4398L43.0636 35.5211L54.2377 29.571ZM88.6473 107.659C76.4197 114.17 71.835 129.454 78.4073 141.797C84.9796 154.14 100.22 158.867 112.448 152.356C124.675 145.845 129.26 130.561 122.688 118.218C116.115 105.876 100.875 101.148 88.6473 107.659Z" fill="black"/>
</svg>
