<svg width="220" height="214" viewBox="0 0 220 214" fill="none" xmlns="http://www.w3.org/2000/svg">
<path d="M123.671 80.8998L187.262 59.6684L148.296 114.224L188.127 168.126L124.218 147.929L85.2622 202.47L84.7217 135.449L20.7953 115.247L84.3869 94.0155L84.1896 28.0355L123.671 80.8998Z" fill="black"/>
<path d="M50.7084 113.139L91.8971 99.3872L91.5468 55.9677L91.4987 49.9271L95.0893 54.7849L120.895 89.7055L167.82 74.0387L164.304 78.9628L139.065 114.295L164.872 149.218L168.463 154.079L162.704 152.259L121.296 139.173L96.0562 174.512L92.5449 179.427L92.4959 173.384L92.1446 129.961L50.7418 116.878L44.9723 115.054L50.7084 113.139ZM111.473 83.5618L109.493 80.8843L95.7116 85.4856L95.7388 88.8148L111.473 83.5618ZM106.975 77.4751L95.5228 61.977L95.6777 81.2468L106.975 77.4751Z" fill="#00FF00"/>
<path fill-rule="evenodd" clip-rule="evenodd" d="M103.07 144.343C104.439 144.715 107.3 146.455 107.301 148.322C107.302 150.188 103.138 155.103 102.143 155.849C101.148 156.597 100.838 157.529 100.215 156.908C99.5922 156.288 101.208 150.564 101.703 148.324C102.2 146.085 103.07 144.343 103.07 144.343ZM138.516 132.509C137.644 133.629 136.402 136.739 137.523 138.231C138.643 139.724 144.925 141.151 146.169 141.15C147.414 141.15 148.221 141.709 148.346 140.839C148.471 139.969 143.743 136.363 141.998 134.871C140.257 133.379 138.516 132.509 138.516 132.509ZM120.107 136.373L118.988 136.748C117.868 137.122 117.245 135.255 115.629 135.382C114.011 135.506 113.205 138.056 113.205 138.056C113.205 138.056 112.272 139.612 110.034 140.359C107.796 141.106 106.986 140.548 104.56 139.49C102.134 138.436 102.133 135.947 102.318 134.019C102.504 132.093 104.244 129.23 105.238 127.239C106.231 125.248 106.169 123.196 104.925 121.953C103.68 120.709 102.251 123.261 102.251 123.261C102.251 123.261 98.5834 128.425 97.7762 129.732C96.9678 131.037 96.3463 132.282 94.8539 131.536C93.533 130.874 94.8193 129.086 95.3607 128.191C96.1565 126.879 97.7401 124.814 96.0862 123.298C94.8342 122.149 93.0121 123.276 92.009 124.248C91.6066 124.635 91.3204 125.064 91.0983 125.512L57.6904 114.954L77.3361 108.395C77.3874 108.618 77.4585 108.793 77.554 108.906C78.2383 109.713 78.4872 109.837 88.0637 108.092C97.6412 106.346 100.191 107.153 104.173 109.764C108.154 112.374 109.899 120.084 110.398 122.821C110.896 125.559 107.168 132.4 106.857 133.337C106.518 134.358 106.917 135.255 107.968 135.505C109.277 135.814 109.459 134.653 110.257 133.959C111.484 132.89 112.958 132.527 114.539 132.376C114.979 132.334 118.565 131.756 118.737 132.271C118.565 131.755 121.78 130.063 122.156 129.833C123.512 129.004 124.908 128.409 126.53 128.526C127.586 128.601 128.429 129.42 129.288 128.387C129.98 127.556 129.759 126.599 128.873 125.986C128.062 125.424 120.972 122.195 119.726 119.707C118.481 117.219 115.244 110.007 116.857 105.529C118.473 101.049 120.026 98.8724 128.73 94.5145C137.435 90.1566 137.56 89.9074 137.622 88.8508C137.631 88.7036 137.581 88.5211 137.489 88.3118L157.134 81.753L136.77 110.264C136.305 110.025 135.802 109.868 135.283 109.801C133.896 109.627 131.762 109.82 131.451 111.492C131.04 113.698 133.545 114.397 134.972 114.967C135.943 115.357 138.044 116.015 137.387 117.336C136.639 118.83 135.396 118.208 133.965 117.65C132.534 117.092 126.5 115.166 126.5 115.166C126.5 115.166 123.825 113.984 123.578 115.726C123.329 117.468 124.512 119.146 126.504 120.14C128.493 121.135 131.604 122.377 132.911 123.806C134.217 125.236 135.71 127.227 134.406 129.527C133.101 131.829 132.79 132.763 130.551 133.51C128.313 134.257 126.633 133.574 126.633 133.574C126.633 133.574 124.456 132.02 123.09 132.892C121.721 133.763 122.344 135.629 121.224 136.003L120.107 136.373Z" fill="black"/>
<path fill-rule="evenodd" clip-rule="evenodd" d="M90.6003 122.519C91.5952 123.017 94.747 121.689 96.2798 120.9C97.8131 120.111 99.4709 118.038 98.8487 117.003C98.2261 115.965 96.1546 115.966 95.9457 117.002C95.7394 118.039 95.9054 118.537 94.2892 119.905C92.6728 121.275 91.8012 119.907 91.8012 119.907C89.3141 119.909 89.6047 122.022 90.6003 122.519ZM132.843 106.204C132.843 106.204 132.967 107.822 130.854 107.697C128.74 107.574 128.574 107.077 127.786 106.372C126.998 105.668 125.34 106.912 125.465 108.117C125.59 109.318 128.161 109.978 129.86 109.689C131.56 109.399 134.876 108.567 135.372 107.571C135.87 106.575 134.832 104.712 132.843 106.204Z" fill="white"/>
</svg>
