<svg width="1920" height="171" viewBox="0 0 1920 171" fill="none" xmlns="http://www.w3.org/2000/svg">
<rect y="46" width="1920" height="80" fill="#00FF00"/>
<path d="M140.328 76.48H135.168V71.6H152.008V76.48H146.928V104H140.328V76.48ZM154.829 71.6H161.429V84.88H167.149V71.6H173.749V104H167.149V89.64H161.429V104H154.829V71.6ZM178.694 71.6H192.814V76.16H185.254V84.76H191.094V89.36H185.254V99.52H192.894V104H178.694V71.6ZM206.712 71.6H213.712L217.712 92.04L221.952 71.6H228.712L229.312 104H224.512L223.992 82L219.832 104H215.752L211.472 81.88L210.992 104H206.152L206.712 71.6ZM243.165 104.44C239.725 104.44 237.271 103.547 235.805 101.76C234.338 99.9467 233.605 97.2933 233.605 93.8V81.72C233.605 78.2267 234.338 75.6 235.805 73.84C237.271 72.08 239.725 71.2 243.165 71.2C246.578 71.2 249.018 72.0933 250.485 73.88C251.978 75.64 252.725 78.2533 252.725 81.72V93.84C252.725 97.3067 251.978 99.9467 250.485 101.76C249.018 103.547 246.578 104.44 243.165 104.44ZM243.165 99.72C244.285 99.72 245.031 99.3467 245.405 98.6C245.805 97.8267 246.005 96.7733 246.005 95.44V80.12C246.005 78.7867 245.805 77.76 245.405 77.04C245.031 76.2933 244.285 75.92 243.165 75.92C242.045 75.92 241.285 76.2933 240.885 77.04C240.511 77.76 240.325 78.7867 240.325 80.12V95.44C240.325 96.8 240.511 97.8533 240.885 98.6C241.258 99.3467 242.018 99.72 243.165 99.72ZM257.131 71.6H265.531C269.025 71.6 271.651 72.24 273.411 73.52C275.171 74.8 276.051 77.0133 276.051 80.16C276.051 82.2667 275.758 83.9733 275.171 85.28C274.585 86.56 273.545 87.5333 272.051 88.2L276.531 104H269.771L266.091 89.32H263.691V104H257.131V71.6ZM265.651 85.4C267.198 85.4 268.278 85.0267 268.891 84.28C269.531 83.5067 269.851 82.3067 269.851 80.68C269.851 79.08 269.571 77.9067 269.011 77.16C268.451 76.4133 267.438 76.04 265.971 76.04H263.691V85.4H265.651ZM280.452 71.6H294.572V76.16H287.012V84.76H292.852V89.36H287.012V99.52H294.652V104H280.452V71.6ZM311.07 76.48H305.91V71.6H322.75V76.48H317.67V104H311.07V76.48ZM325.571 71.6H332.171V84.88H337.891V71.6H344.491V104H337.891V89.64H332.171V104H325.571V71.6ZM349.436 71.6H363.556V76.16H355.996V84.76H361.836V89.36H355.996V99.52H363.636V104H349.436V71.6ZM380.054 76.48H374.894V71.6H391.734V76.48H386.654V104H380.054V76.48ZM394.555 71.6H401.115V104H394.555V71.6ZM406.038 71.6H412.598V85.28L418.478 71.6H424.878L418.798 86.16L425.358 104H418.678L413.678 89.52L412.598 91.28V104H406.038V71.6ZM435.828 87.24H474.988V91.4H435.828V87.24ZM490.601 76.48H485.441V71.6H502.281V76.48H497.201V104H490.601V76.48ZM505.102 71.6H511.702V84.88H517.422V71.6H524.022V104H517.422V89.64H511.702V104H505.102V71.6ZM528.967 71.6H543.087V76.16H535.527V84.76H541.367V89.36H535.527V99.52H543.167V104H528.967V71.6ZM556.985 71.6H563.985L567.985 92.04L572.225 71.6H578.985L579.585 104H574.785L574.265 82L570.105 104H566.025L561.745 81.88L561.265 104H556.425L556.985 71.6ZM593.438 104.44C589.998 104.44 587.545 103.547 586.078 101.76C584.611 99.9467 583.878 97.2933 583.878 93.8V81.72C583.878 78.2267 584.611 75.6 586.078 73.84C587.545 72.08 589.998 71.2 593.438 71.2C596.851 71.2 599.291 72.0933 600.758 73.88C602.251 75.64 602.998 78.2533 602.998 81.72V93.84C602.998 97.3067 602.251 99.9467 600.758 101.76C599.291 103.547 596.851 104.44 593.438 104.44ZM593.438 99.72C594.558 99.72 595.305 99.3467 595.678 98.6C596.078 97.8267 596.278 96.7733 596.278 95.44V80.12C596.278 78.7867 596.078 77.76 595.678 77.04C595.305 76.2933 594.558 75.92 593.438 75.92C592.318 75.92 591.558 76.2933 591.158 77.04C590.785 77.76 590.598 78.7867 590.598 80.12V95.44C590.598 96.8 590.785 97.8533 591.158 98.6C591.531 99.3467 592.291 99.72 593.438 99.72ZM607.405 71.6H615.805C619.298 71.6 621.925 72.24 623.685 73.52C625.445 74.8 626.325 77.0133 626.325 80.16C626.325 82.2667 626.032 83.9733 625.445 85.28C624.858 86.56 623.818 87.5333 622.325 88.2L626.805 104H620.045L616.365 89.32H613.965V104H607.405V71.6ZM615.925 85.4C617.472 85.4 618.552 85.0267 619.165 84.28C619.805 83.5067 620.125 82.3067 620.125 80.68C620.125 79.08 619.845 77.9067 619.285 77.16C618.725 76.4133 617.712 76.04 616.245 76.04H613.965V85.4H615.925ZM630.725 71.6H644.845V76.16H637.285V84.76H643.125V89.36H637.285V99.52H644.925V104H630.725V71.6ZM661.343 76.48H656.183V71.6H673.023V76.48H667.943V104H661.343V76.48ZM675.844 71.6H682.444V84.88H688.164V71.6H694.764V104H688.164V89.64H682.444V104H675.844V71.6ZM699.71 71.6H713.83V76.16H706.27V84.76H712.11V89.36H706.27V99.52H713.91V104H699.71V71.6ZM730.328 76.48H725.168V71.6H742.008V76.48H736.928V104H730.328V76.48ZM753.829 104.44C750.389 104.44 747.935 103.547 746.469 101.76C745.002 99.9467 744.269 97.2933 744.269 93.8V81.72C744.269 78.2267 745.002 75.6 746.469 73.84C747.935 72.08 750.389 71.2 753.829 71.2C757.242 71.2 759.682 72.0933 761.149 73.88C762.642 75.64 763.389 78.2533 763.389 81.72V93.84C763.389 97.3067 762.642 99.9467 761.149 101.76C759.682 103.547 757.242 104.44 753.829 104.44ZM753.829 99.72C754.949 99.72 755.695 99.3467 756.069 98.6C756.469 97.8267 756.669 96.7733 756.669 95.44V80.12C756.669 78.7867 756.469 77.76 756.069 77.04C755.695 76.2933 754.949 75.92 753.829 75.92C752.709 75.92 751.949 76.2933 751.549 77.04C751.175 77.76 750.989 78.7867 750.989 80.12V95.44C750.989 96.8 751.175 97.8533 751.549 98.6C751.922 99.3467 752.682 99.72 753.829 99.72ZM767.795 71.6H774.355V85.28L780.235 71.6H786.635L780.555 86.16L787.115 104H780.435L775.435 89.52L774.355 91.28V104H767.795V71.6ZM789.866 71.6H803.986V76.16H796.426V84.76H802.266V89.36H796.426V99.52H804.066V104H789.866V71.6ZM807.444 71.6H812.044L819.244 88.44V71.6H824.724V104H820.284L813.084 86.08V104H807.444V71.6Z" fill="black"/>
<path d="M1040.73 76.48H1035.57V71.6H1052.41V76.48H1047.33V104H1040.73V76.48ZM1055.23 71.6H1061.83V84.88H1067.55V71.6H1074.15V104H1067.55V89.64H1061.83V104H1055.23V71.6ZM1079.1 71.6H1093.22V76.16H1085.66V84.76H1091.5V89.36H1085.66V99.52H1093.3V104H1079.1V71.6ZM1107.12 71.6H1114.12L1118.12 92.04L1122.36 71.6H1129.12L1129.72 104H1124.92L1124.4 82L1120.24 104H1116.16L1111.88 81.88L1111.4 104H1106.56L1107.12 71.6ZM1143.57 104.44C1140.13 104.44 1137.68 103.547 1136.21 101.76C1134.74 99.9467 1134.01 97.2933 1134.01 93.8V81.72C1134.01 78.2267 1134.74 75.6 1136.21 73.84C1137.68 72.08 1140.13 71.2 1143.57 71.2C1146.98 71.2 1149.42 72.0933 1150.89 73.88C1152.38 75.64 1153.13 78.2533 1153.13 81.72V93.84C1153.13 97.3067 1152.38 99.9467 1150.89 101.76C1149.42 103.547 1146.98 104.44 1143.57 104.44ZM1143.57 99.72C1144.69 99.72 1145.44 99.3467 1145.81 98.6C1146.21 97.8267 1146.41 96.7733 1146.41 95.44V80.12C1146.41 78.7867 1146.21 77.76 1145.81 77.04C1145.44 76.2933 1144.69 75.92 1143.57 75.92C1142.45 75.92 1141.69 76.2933 1141.29 77.04C1140.92 77.76 1140.73 78.7867 1140.73 80.12V95.44C1140.73 96.8 1140.92 97.8533 1141.29 98.6C1141.66 99.3467 1142.42 99.72 1143.57 99.72ZM1157.54 71.6H1165.94C1169.43 71.6 1172.06 72.24 1173.82 73.52C1175.58 74.8 1176.46 77.0133 1176.46 80.16C1176.46 82.2667 1176.16 83.9733 1175.58 85.28C1174.99 86.56 1173.95 87.5333 1172.46 88.2L1176.94 104H1170.18L1166.5 89.32H1164.1V104H1157.54V71.6ZM1166.06 85.4C1167.6 85.4 1168.68 85.0267 1169.3 84.28C1169.94 83.5067 1170.26 82.3067 1170.26 80.68C1170.26 79.08 1169.98 77.9067 1169.42 77.16C1168.86 76.4133 1167.84 76.04 1166.38 76.04H1164.1V85.4H1166.06ZM1180.86 71.6H1194.98V76.16H1187.42V84.76H1193.26V89.36H1187.42V99.52H1195.06V104H1180.86V71.6ZM1211.48 76.48H1206.32V71.6H1223.16V76.48H1218.08V104H1211.48V76.48ZM1225.98 71.6H1232.58V84.88H1238.3V71.6H1244.9V104H1238.3V89.64H1232.58V104H1225.98V71.6ZM1249.84 71.6H1263.96V76.16H1256.4V84.76H1262.24V89.36H1256.4V99.52H1264.04V104H1249.84V71.6ZM1280.46 76.48H1275.3V71.6H1292.14V76.48H1287.06V104H1280.46V76.48ZM1303.96 104.44C1300.52 104.44 1298.07 103.547 1296.6 101.76C1295.13 99.9467 1294.4 97.2933 1294.4 93.8V81.72C1294.4 78.2267 1295.13 75.6 1296.6 73.84C1298.07 72.08 1300.52 71.2 1303.96 71.2C1307.37 71.2 1309.81 72.0933 1311.28 73.88C1312.77 75.64 1313.52 78.2533 1313.52 81.72V93.84C1313.52 97.3067 1312.77 99.9467 1311.28 101.76C1309.81 103.547 1307.37 104.44 1303.96 104.44ZM1303.96 99.72C1305.08 99.72 1305.83 99.3467 1306.2 98.6C1306.6 97.8267 1306.8 96.7733 1306.8 95.44V80.12C1306.8 78.7867 1306.6 77.76 1306.2 77.04C1305.83 76.2933 1305.08 75.92 1303.96 75.92C1302.84 75.92 1302.08 76.2933 1301.68 77.04C1301.31 77.76 1301.12 78.7867 1301.12 80.12V95.44C1301.12 96.8 1301.31 97.8533 1301.68 98.6C1302.05 99.3467 1302.81 99.72 1303.96 99.72ZM1317.93 71.6H1324.49V85.28L1330.37 71.6H1336.77L1330.69 86.16L1337.25 104H1330.57L1325.57 89.52L1324.49 91.28V104H1317.93V71.6ZM1340 71.6H1354.12V76.16H1346.56V84.76H1352.4V89.36H1346.56V99.52H1354.2V104H1340V71.6ZM1357.58 71.6H1362.18L1369.38 88.44V71.6H1374.86V104H1370.42L1363.22 86.08V104H1357.58V71.6ZM1387.45 87.24H1426.61V91.4H1387.45V87.24ZM1442.22 76.48H1437.06V71.6H1453.9V76.48H1448.82V104H1442.22V76.48ZM1456.72 71.6H1463.32V84.88H1469.04V71.6H1475.64V104H1469.04V89.64H1463.32V104H1456.72V71.6ZM1480.58 71.6H1494.7V76.16H1487.14V84.76H1492.98V89.36H1487.14V99.52H1494.78V104H1480.58V71.6ZM1508.6 71.6H1515.6L1519.6 92.04L1523.84 71.6H1530.6L1531.2 104H1526.4L1525.88 82L1521.72 104H1517.64L1513.36 81.88L1512.88 104H1508.04L1508.6 71.6ZM1545.06 104.44C1541.62 104.44 1539.16 103.547 1537.7 101.76C1536.23 99.9467 1535.5 97.2933 1535.5 93.8V81.72C1535.5 78.2267 1536.23 75.6 1537.7 73.84C1539.16 72.08 1541.62 71.2 1545.06 71.2C1548.47 71.2 1550.91 72.0933 1552.38 73.88C1553.87 75.64 1554.62 78.2533 1554.62 81.72V93.84C1554.62 97.3067 1553.87 99.9467 1552.38 101.76C1550.91 103.547 1548.47 104.44 1545.06 104.44ZM1545.06 99.72C1546.18 99.72 1546.92 99.3467 1547.3 98.6C1547.7 97.8267 1547.9 96.7733 1547.9 95.44V80.12C1547.9 78.7867 1547.7 77.76 1547.3 77.04C1546.92 76.2933 1546.18 75.92 1545.06 75.92C1543.94 75.92 1543.18 76.2933 1542.78 77.04C1542.4 77.76 1542.22 78.7867 1542.22 80.12V95.44C1542.22 96.8 1542.4 97.8533 1542.78 98.6C1543.15 99.3467 1543.91 99.72 1545.06 99.72ZM1559.02 71.6H1567.42C1570.92 71.6 1573.54 72.24 1575.3 73.52C1577.06 74.8 1577.94 77.0133 1577.94 80.16C1577.94 82.2667 1577.65 83.9733 1577.06 85.28C1576.48 86.56 1575.44 87.5333 1573.94 88.2L1578.42 104H1571.66L1567.98 89.32H1565.58V104H1559.02V71.6ZM1567.54 85.4C1569.09 85.4 1570.17 85.0267 1570.78 84.28C1571.42 83.5067 1571.74 82.3067 1571.74 80.68C1571.74 79.08 1571.46 77.9067 1570.9 77.16C1570.34 76.4133 1569.33 76.04 1567.86 76.04H1565.58V85.4H1567.54ZM1582.34 71.6H1596.46V76.16H1588.9V84.76H1594.74V89.36H1588.9V99.52H1596.54V104H1582.34V71.6ZM1612.96 76.48H1607.8V71.6H1624.64V76.48H1619.56V104H1612.96V76.48ZM1627.46 71.6H1634.06V84.88H1639.78V71.6H1646.38V104H1639.78V89.64H1634.06V104H1627.46V71.6ZM1651.33 71.6H1665.45V76.16H1657.89V84.76H1663.73V89.36H1657.89V99.52H1665.53V104H1651.33V71.6ZM1678.9 71.6H1693.02V76.16H1685.46V84.76H1691.3V89.36H1685.46V99.52H1693.1V104H1678.9V71.6ZM1701.16 71.6H1708.48L1714.72 104H1708.64L1707.44 96.88H1702.32L1701.08 104H1694.88L1701.16 71.6ZM1706.8 92.8L1704.84 79.76L1702.92 92.8H1706.8ZM1718.01 71.6H1726.41C1729.9 71.6 1732.53 72.24 1734.29 73.52C1736.05 74.8 1736.93 77.0133 1736.93 80.16C1736.93 82.2667 1736.63 83.9733 1736.05 85.28C1735.46 86.56 1734.42 87.5333 1732.93 88.2L1737.41 104H1730.65L1726.97 89.32H1724.57V104H1718.01V71.6ZM1726.53 85.4C1728.07 85.4 1729.15 85.0267 1729.77 84.28C1730.41 83.5067 1730.73 82.3067 1730.73 80.68C1730.73 79.08 1730.45 77.9067 1729.89 77.16C1729.33 76.4133 1728.31 76.04 1726.85 76.04H1724.57V85.4H1726.53ZM1741.33 71.6H1745.93L1753.13 88.44V71.6H1758.61V104H1754.17L1746.97 86.08V104H1741.33V71.6ZM1763.56 71.6H1770.12V104H1763.56V71.6ZM1775.04 71.6H1779.64L1786.84 88.44V71.6H1792.32V104H1787.88L1780.68 86.08V104H1775.04V71.6Z" fill="black"/>
<path fill-rule="evenodd" clip-rule="evenodd" d="M945.038 32.6482L990.878 2L976.041 57.1383L1032 68.0407L975.945 100.09L975.216 100.514L988.209 140.427L950.427 127.416L931.694 164.314L914.008 127.66L853.937 160.029L881.649 99.6223L829 77.0678L880.497 61.3335L859.728 17.11L912.602 38.5535L930.256 5.62925L945.038 32.6482Z" fill="#00FF00"/>
<path d="M963.417 96.1007L971.03 91.6615L1004.37 72.5989L966.83 65.2872L963.942 64.7649L964.73 61.6313L974.705 24.5506L942.679 45.9634L941.629 46.7468L930.341 26.1173L917.741 49.6192L917.216 50.9249L913.278 49.3581L879.152 35.5181L894.115 67.3762L857.364 78.6049L893.328 94.0117L894.64 94.5339L892.803 98.7121L874.952 137.621L912.753 117.252L918.266 114.119L919.316 116.208L931.916 142.321L945.042 116.469L945.567 115.425L972.867 124.825L963.942 97.4064L963.417 96.1007ZM947.929 108.635L942.154 106.546L938.741 113.335L932.179 126.131L925.879 113.074L921.678 104.196L909.341 110.724L890.44 120.908L899.365 101.323L904.353 90.617L896.215 86.9611L878.365 79.1272L897.003 73.3823L904.353 71.0321L901.465 64.7649L893.59 48.0524L910.653 55.103L920.628 59.2811L924.304 52.4917L930.604 40.7407L936.904 52.4917L939.004 56.4087L946.617 51.186L962.63 40.4796L957.642 59.02L954.754 69.7264L965.255 71.8155L984.155 75.4713L967.617 85.1332L954.754 92.4449L957.117 99.2343L961.58 113.074L947.929 108.635Z" fill="black"/>
<path d="M945.813 89.6387L963.535 79.3001L945.548 75.9403L950.309 58.1093L936.025 67.6711L929.94 56.8167L923.064 69.2226L906.929 62.7597L913.542 76.1992L898.2 80.8517L913.012 87.3125L905.077 104.369L924.123 94.2912L931.793 110.055L938.141 97.651L949.78 101.786L945.813 89.6387Z" fill="black"/>
<path fill-rule="evenodd" clip-rule="evenodd" d="M1905.04 38.6482L1950.88 8L1936.04 63.1383L1992 74.0407L1935.94 106.09L1935.22 106.514L1948.21 146.427L1910.43 133.416L1891.69 170.314L1874.01 133.66L1813.94 166.029L1841.65 105.622L1789 83.0678L1840.5 67.3335L1819.73 23.11L1872.6 44.5535L1890.26 11.6293L1905.04 38.6482Z" fill="#00FF00"/>
<path d="M1923.42 102.101L1931.03 97.6615L1964.37 78.5989L1926.83 71.2872L1923.94 70.7649L1924.73 67.6313L1934.7 30.5506L1902.68 51.9634L1901.63 52.7468L1890.34 32.1173L1877.74 55.6192L1877.22 56.9249L1873.28 55.3581L1839.15 41.5181L1854.12 73.3762L1817.36 84.6049L1853.33 100.012L1854.64 100.534L1852.8 104.712L1834.95 143.621L1872.75 123.252L1878.27 120.119L1879.32 122.208L1891.92 148.321L1905.04 122.469L1905.57 121.425L1932.87 130.825L1923.94 103.406L1923.42 102.101ZM1907.93 114.635L1902.15 112.546L1898.74 119.335L1892.18 132.131L1885.88 119.074L1881.68 110.196L1869.34 116.724L1850.44 126.908L1859.37 107.323L1864.35 96.617L1856.22 92.9611L1838.36 85.1272L1857 79.3823L1864.35 77.0321L1861.47 70.7649L1853.59 54.0524L1870.65 61.103L1880.63 65.2811L1884.3 58.4917L1890.6 46.7407L1896.9 58.4917L1899 62.4087L1906.62 57.186L1922.63 46.4796L1917.64 65.02L1914.75 75.7264L1925.25 77.8155L1944.16 81.4713L1927.62 91.1332L1914.75 98.4449L1917.12 105.234L1921.58 119.074L1907.93 114.635Z" fill="black"/>
<path d="M1905.81 95.6387L1923.54 85.3001L1905.55 81.9403L1910.31 64.1093L1896.03 73.6711L1889.94 62.8167L1883.06 75.2226L1866.93 68.7597L1873.54 82.1992L1858.2 86.8517L1873.01 93.3125L1865.08 110.369L1884.12 100.291L1891.79 116.055L1898.14 103.651L1909.78 107.786L1905.81 95.6387Z" fill="black"/>
<path fill-rule="evenodd" clip-rule="evenodd" d="M56.0379 30.6482L101.878 0L87.041 55.1383L143 66.0407L86.945 98.09L86.2162 98.5139L99.2088 138.427L61.4275 125.416L42.6944 162.314L25.0076 125.66L-35.063 158.029L-7.3508 97.6223L-60 75.0678L-8.50347 59.3335L-29.2725 15.11L23.6022 36.5535L41.2557 3.62925L56.0379 30.6482Z" fill="#00FF00"/>
<path d="M74.4171 94.1007L82.0298 89.6615L115.368 70.5989L77.8297 63.2872L74.9421 62.7649L75.7296 59.6313L85.7049 22.5506L53.679 43.9634L52.629 44.7468L41.3412 24.1173L28.7409 47.6192L28.2159 48.9249L24.2782 47.3581L-9.84766 33.5181L5.11524 65.3762L-31.6357 76.6049L4.32771 92.0117L5.64025 92.5339L3.8027 96.7121L-14.0478 135.621L23.7532 115.252L29.2659 112.119L30.3159 114.208L42.9162 140.321L56.0416 114.469L56.5666 113.425L83.8673 122.825L74.9421 95.4064L74.4171 94.1007ZM58.9292 106.635L53.154 104.546L49.7414 111.335L43.1787 124.131L36.8786 111.074L32.6785 102.196L20.3406 108.724L1.44014 118.908L10.3654 99.3234L15.353 88.617L7.21529 84.9611L-10.6352 77.1272L8.00281 71.3823L15.353 69.0321L12.4654 62.7649L4.59022 46.0524L21.6532 53.103L31.6284 57.2811L35.3035 50.4917L41.6037 38.7407L47.9039 50.4917L50.0039 54.4087L57.6166 49.186L73.6296 38.4796L68.6419 57.02L65.7543 67.7264L76.2546 69.8155L95.1551 73.4713L78.6172 83.1332L65.7543 90.4449L68.1169 97.2343L72.5795 111.074L58.9292 106.635Z" fill="black"/>
<path d="M56.8127 87.6387L74.5351 77.3001L56.5475 73.9403L61.3086 56.1093L47.0254 65.6711L40.9405 54.8167L34.0641 67.2226L17.9288 60.7597L24.542 74.1992L9.2002 78.8517L24.0116 85.3125L16.0766 102.369L35.1228 92.2912L42.7927 108.055L49.1408 95.651L60.7803 99.7856L56.8127 87.6387Z" fill="black"/>
</svg>
