<svg width="191" height="177" viewBox="0 0 191 177" fill="none" xmlns="http://www.w3.org/2000/svg">
<path fill-rule="evenodd" clip-rule="evenodd" d="M72.4116 26.8621L190.397 122.811L45.5327 176.52L72.4116 26.8621Z" fill="#00FF00"/>
<path d="M76.49 38.148L54.8263 165.63L175.781 120.786L76.49 38.148ZM111.195 129.523C121.618 125.659 126.705 114.095 122.919 103.885C121.568 100.239 119.426 97.4384 116.648 95.1504C128.084 96.9935 137.451 102.922 137.451 102.922C137.451 102.922 130.484 126.519 112.062 133.349C93.6401 140.179 72.7317 126.917 72.7317 126.917C72.7317 126.917 76.0939 115.163 84.7764 105.861C83.9188 109.497 84.0587 113.593 85.5909 117.725C89.3762 127.935 100.772 133.388 111.195 129.523ZM89.9041 112.255C88.8226 109.338 90.193 106.341 93.1017 105.263C96.0105 104.184 99.0032 105.563 100.085 108.481C101.166 111.398 99.7958 114.394 96.8871 115.473C93.9783 116.551 90.8955 114.929 89.9041 112.255ZM144.592 103.592L162.44 118.266L128.504 130.848C138.185 122.005 142.759 109.802 144.592 103.592ZM129.855 91.3598C120.483 87.6456 108.049 85.3428 95.687 89.9261C83.3249 94.5094 75.3975 104.361 70.7114 113.288L81.2667 51.0318L129.855 91.3598ZM67.5109 132.171C72.8592 135.441 84.283 141.713 97.7205 142.261L63.7854 154.843L67.5109 132.171Z" fill="black"/>
</svg>
