<?xml version="1.0" encoding="utf-8"?>
<!-- Generator: Adobe Illustrator 24.1.0, SVG Export Plug-In . SVG Version: 6.00 Build 0)  -->
<svg version="1.1" id="Layer_1" xmlns="http://www.w3.org/2000/svg" xmlns:xlink="http://www.w3.org/1999/xlink" x="0px" y="0px"
	 viewBox="0 0 1024 1024" style="enable-background:new 0 0 1024 1024;" xml:space="preserve">
<style type="text/css">
	.st0{fill:#00FF00;}
</style>
<g>
	<circle class="st0" cx="512" cy="512" r="512"/>
	<path d="M822,514.3v8.7c0,170.9-139.1,310-310,310S202,693.9,202,523v-8.7h-78.4v8.7c0,214.2,174.2,388.4,388.4,388.4
		S900.4,737.2,900.4,523v-8.7H822z"/>
	<g>
		<path d="M373.5,228.8c-41.2,0-73.4,70.2-73.4,159.8c0,89.6,32.3,159.8,73.4,159.8S447,478.2,447,388.6
			C447,299,414.7,228.8,373.5,228.8z"/>
		<path d="M650.5,228.8c-41.2,0-73.4,70.2-73.4,159.8c0,89.6,32.3,159.8,73.4,159.8c41.2,0,73.5-70.2,73.5-159.8
			C723.9,299,691.6,228.8,650.5,228.8z"/>
	</g>
</g>
</svg>
