<?xml version="1.0" encoding="utf-8"?>
<!-- Generator: Adobe Illustrator 24.1.0, SVG Export Plug-In . SVG Version: 6.00 Build 0)  -->
<svg version="1.1" id="Layer_1" xmlns="http://www.w3.org/2000/svg" xmlns:xlink="http://www.w3.org/1999/xlink" x="0px" y="0px"
	 viewBox="0 0 470 124" style="enable-background:new 0 0 470 124;" xml:space="preserve">
<style type="text/css">
	.st0{fill:#00FF00;}
</style>
<g>
	<path d="M49.7,34.4v17.1H34.2v41.3H15.4V51.5H0V34.4H49.7z"/>
	<path d="M57.6,34.4h18.7v58.4H57.6V34.4z"/>
	<path d="M107.6,54.5l16.4-20h20.8l-20,24.2l21.7,34.2h-20.9l-13-20.5l-5,6.3v14.2H88.9V34.4h18.7V54.5z"/>
	<path d="M196.5,34.4v17.1H181v41.3h-18.8V51.5h-15.4V34.4H196.5z"/>
	<path d="M312.7,54.5l16.4-20h20.8l-20,24.2l21.7,34.2h-20.9l-13-20.5l-5,6.3v14.2H294V34.4h18.7V54.5z"/>
	<path d="M403.7,77.4v15.4h-47.1V34.4h46.3v15.4h-27.5v6.3h20.9v14.2h-20.9v7.1H403.7z"/>
	<path d="M470,34.4v58.4h-15.8L432,64.5v28.4h-18.7V34.4h15.8l22.1,28.4V34.4H470z"/>
	<circle class="st0" cx="243.8" cy="62" r="44.6"/>
	<path d="M270.8,62.2V63c0,14.9-12.1,27-27,27s-27-12.1-27-27v-0.8H210V63c0,18.6,15.2,33.8,33.8,33.8s33.8-15.2,33.8-33.8v-0.8
		H270.8z"/>
	<g>
		<path d="M231.8,37.4c-3.6,0-6.4,6.1-6.4,13.9c0,7.8,2.8,13.9,6.4,13.9s6.4-6.1,6.4-13.9C238.2,43.5,235.4,37.4,231.8,37.4z"/>
		<path d="M255.9,37.4c-3.6,0-6.4,6.1-6.4,13.9c0,7.8,2.8,13.9,6.4,13.9s6.4-6.1,6.4-13.9C262.3,43.5,259.5,37.4,255.9,37.4z"/>
	</g>
</g>
</svg>
