<?xml version="1.0" encoding="utf-8"?>
<!-- Generator: Adobe Illustrator 24.1.0, SVG Export Plug-In . SVG Version: 6.00 Build 0)  -->
<svg version="1.1" id="Layer_1" xmlns="http://www.w3.org/2000/svg" xmlns:xlink="http://www.w3.org/1999/xlink" x="0px" y="0px"
	 viewBox="0 0 960 220" style="enable-background:new 0 0 960 220;" xml:space="preserve">
<style type="text/css">
	.st0{fill:#00FF00;}
	.st1{fill:#FFFFFF;}
</style>
<path class="st0" d="M500.7,220c60.5,0,109.6-49.1,109.6-109.6S561.2,0.8,500.7,0.8c-60.5,0-109.6,49.1-109.6,109.6
	S440.2,220,500.7,220z"/>
<path d="M567.1,110.9v1.9c0,36.6-29.8,66.3-66.3,66.3c-36.6,0-66.3-29.8-66.3-66.3v-1.9h-16.8v1.9c0,45.9,37.3,83.1,83.1,83.1
	s83.1-37.3,83.1-83.1v-1.9H567.1z"/>
<path d="M471.1,49.8c-8.9,0-15.8,15-15.8,34.2s6.9,34.2,15.8,34.2c8.9,0,15.7-15.1,15.7-34.2C486.8,64.8,479.9,49.8,471.1,49.8z"/>
<path d="M530.3,49.8c-8.9,0-15.8,15-15.8,34.2s6.9,34.2,15.8,34.2c8.9,0,15.8-15,15.8-34.2S539.2,49.8,530.3,49.8z"/>
<path class="st1" d="M27.6,55.7H-0.1V25.9h95.5v29.8H67.9v151.5H27.6V55.7z M111.4,25.9h40v181.2h-40V25.9z M178.4,25.9h40V100
	l30.4-74.1h39.2l-33.6,81.9l35.1,99.3h-40.7l-26.2-80.1l-4.3,7.2v72.9h-40V25.9z M321.9,55.7h-27.7V25.9h95.5v29.8h-27.5v151.5
	h-40.3V55.7z M634.4,25.9h40V100l30.4-74.1h39.2l-33.6,81.9l35.1,99.3h-40.7l-26.2-80.1l-4.3,7.2v72.9h-40V25.9z M761.4,25.9h81.4
	v27.3h-41.4v45H833V126h-31.5v54.1h41.8v27.1h-81.9V25.9z M861.5,25.9h28.2l37.1,87.3V25.9h33.1v181.2h-27.1l-37.1-94v94h-34.2V25.9
	z"/>
</svg>
